<svg width="22" height="25" viewBox="0 0 22 25" fill="none" xmlns="http://www.w3.org/2000/svg">
<mask id="mask0_31_59" style="mask-type:luminance" maskUnits="userSpaceOnUse" x="0" y="0" width="22" height="25">
<path fill-rule="evenodd" clip-rule="evenodd" d="M0.083374 0.125214H21.4373V24.3183H0.083374V0.125214Z" fill="white"/>
</mask>
<g mask="url(#mask0_31_59)">
<path fill-rule="evenodd" clip-rule="evenodd" d="M12.2883 16.2027C13.5425 16.2027 14.5633 17.2973 14.5633 18.6428V22.1033C14.5633 22.3924 14.7779 22.6242 15.0529 22.6309H17.0383C18.6029 22.6309 19.8748 21.2742 19.8748 19.6069V9.79244C19.8675 9.21869 19.6144 8.67869 19.18 8.31981L12.3123 2.40456C11.3904 1.61594 10.1008 1.61594 9.17584 2.40681L2.35501 8.31756C1.90396 8.68769 1.65084 9.22769 1.64563 9.81156V19.6069C1.64563 21.2742 2.91751 22.6309 4.48209 22.6309H6.48626C6.76855 22.6309 6.99771 22.3891 6.99771 22.0921C6.99771 22.0268 7.00501 21.9616 7.01751 21.8997V18.6428C7.01751 17.3052 8.03209 16.2117 9.27688 16.2027H12.2883ZM17.0383 24.3184H15.0342C13.8863 24.2892 13.0008 23.3161 13.0008 22.1033V18.6428C13.0008 18.2277 12.681 17.8902 12.2883 17.8902H9.28209C8.89771 17.8924 8.58 18.2311 8.58 18.6428V22.0921C8.58 22.1764 8.56959 22.2574 8.54771 22.3339C8.43521 23.4477 7.55396 24.3184 6.48626 24.3184H4.48209C2.05605 24.3184 0.0831299 22.2046 0.0831299 19.6069V9.80369C0.0935465 8.68544 0.57063 7.66169 1.39459 6.98781L8.20188 1.08719C9.70084 -0.195313 11.7894 -0.195313 13.2852 1.08494L20.1415 6.99119C20.9467 7.65381 21.4238 8.67531 21.4373 9.78006V19.6069C21.4373 22.2046 19.4644 24.3184 17.0383 24.3184Z" fill="black"/>
</g>
</svg>
