<svg width="35" height="19" viewBox="0 0 35 19" fill="none" xmlns="http://www.w3.org/2000/svg">
<path fill-rule="evenodd" clip-rule="evenodd" d="M17.5348 10.2802H17.5762C21.443 10.2802 24.5871 7.974 24.5871 5.14012C24.5871 2.30625 21.443 0 17.5762 0C13.7109 0 10.5668 2.30625 10.5668 5.13675C10.5591 6.50588 11.2788 7.79513 12.5953 8.766C13.9088 9.738 15.6627 10.2758 17.5348 10.2802ZM12.8685 5.14013C12.8685 3.23662 14.9799 1.6875 17.5762 1.6875C20.1725 1.6875 22.2854 3.23662 22.2854 5.14013C22.2854 7.04475 20.1725 8.59275 17.5762 8.59275H17.5378C16.2857 8.58938 15.1103 8.22825 14.228 7.57688C13.3457 6.9255 12.8639 6.06262 12.8685 5.14013Z" fill="black"/>
<path d="M25.6445 8.43807C25.7258 8.85994 26.2183 9.16482 26.783 9.16482C26.8352 9.16482 26.8889 9.16257 26.9426 9.15694C29.6663 8.87682 31.724 7.14432 31.7301 5.12494C31.7301 3.11907 29.7706 1.42707 27.073 1.10194C26.4424 1.02882 25.8547 1.33707 25.7503 1.79719C25.6475 2.25732 26.0726 2.69157 26.6986 2.76694C28.2807 2.95707 29.4284 3.94932 29.4284 5.12269C29.4254 6.30619 28.2208 7.32094 26.625 7.48519C25.9943 7.54932 25.557 7.97569 25.6445 8.43807Z" fill="black"/>
<path d="M30.2718 15.8042C30.4467 16.1405 30.884 16.3475 31.3474 16.3475C31.484 16.3475 31.6221 16.3295 31.7571 16.2924C33.9514 15.6793 34.2798 14.5622 34.2798 13.9502C34.2798 12.9478 33.4987 11.6675 29.7807 11.2592C29.147 11.1995 28.5639 11.5067 28.4703 11.9679C28.3767 12.4303 28.811 12.8589 29.4385 12.9287C31.1234 13.1132 31.9781 13.4574 31.9781 13.9502C31.9781 14.1043 31.9781 14.4249 30.9377 14.7152C30.3439 14.8805 30.0447 15.3688 30.2718 15.8042Z" fill="black"/>
<path fill-rule="evenodd" clip-rule="evenodd" d="M17.5761 18.8898C15.0305 18.8898 7.28146 18.8898 7.28146 15.2954C7.28146 11.7157 15.0305 11.7157 17.5761 11.7157C20.1218 11.7157 27.8693 11.7157 27.8693 15.3146C27.8693 18.8898 20.3919 18.8898 17.5761 18.8898ZM17.5761 13.4032C13.9303 13.4032 9.58315 13.7317 9.58315 15.2954C9.58315 16.8716 13.9303 17.2023 17.5761 17.2023C21.222 17.2023 25.5676 16.8749 25.5676 15.3146C25.5676 13.7351 21.222 13.4032 17.5761 13.4032Z" fill="black"/>
<path d="M8.36783 9.16476C8.31566 9.16476 8.26196 9.16251 8.20825 9.15688C5.48459 8.87676 3.42842 7.14426 3.42228 5.12713C3.42228 3.11901 5.38178 1.42701 8.07936 1.10188C8.72536 1.02763 9.29772 1.33926 9.40206 1.79713C9.50487 2.25726 9.07982 2.69151 8.45376 2.76688C6.87174 2.95701 5.72396 3.94926 5.72396 5.12488C5.72703 6.30613 6.93158 7.32201 8.52588 7.48513C9.15655 7.54926 9.59387 7.97563 9.5064 8.43801C9.42507 8.85988 8.93251 9.16476 8.36783 9.16476Z" fill="black"/>
<path d="M3.39528 16.2925C3.53031 16.3296 3.66841 16.3476 3.80498 16.3476C4.26838 16.3476 4.7057 16.1406 4.88063 15.8042C5.10773 15.3688 4.80851 14.8806 4.21468 14.7152C3.17278 14.4238 3.17278 14.1043 3.17278 13.9502C3.17278 13.4575 4.02747 13.1132 5.71231 12.9287C6.3399 12.859 6.77415 12.4303 6.68055 11.968C6.58541 11.5067 6.00539 11.2007 5.37166 11.2592C1.65213 11.6676 0.871094 12.949 0.871094 13.9502C0.871094 14.5611 1.19947 15.6782 3.39528 16.2925Z" fill="black"/>
</svg>
