<svg width="35" height="20" viewBox="0 0 35 20" fill="none" xmlns="http://www.w3.org/2000/svg">
<path fill-rule="evenodd" clip-rule="evenodd" d="M17.2848 10.7802H17.3262C21.193 10.7802 24.3371 8.474 24.3371 5.64012C24.3371 2.80625 21.193 0.5 17.3262 0.5C13.4609 0.5 10.3168 2.80625 10.3168 5.63675C10.3091 7.00587 11.0288 8.29512 12.3453 9.266C13.6588 10.238 15.4127 10.7757 17.2848 10.7802ZM12.6185 5.64013C12.6185 3.73662 14.7299 2.1875 17.3262 2.1875C19.9225 2.1875 22.0354 3.73662 22.0354 5.64013C22.0354 7.54475 19.9225 9.09275 17.3262 9.09275H17.2878C16.0357 9.08938 14.8603 8.72825 13.978 8.07688C13.0957 7.4255 12.6139 6.56262 12.6185 5.64013Z" fill="black"/>
<path d="M25.3945 8.93807C25.4758 9.35994 25.9683 9.66482 26.533 9.66482C26.5852 9.66482 26.6389 9.66257 26.6926 9.65694C29.4163 9.37682 31.474 7.64432 31.4801 5.62494C31.4801 3.61907 29.5206 1.92707 26.823 1.60194C26.1924 1.52882 25.6047 1.83707 25.5003 2.29719C25.3975 2.75732 25.8226 3.19157 26.4486 3.26694C28.0307 3.45707 29.1784 4.44932 29.1784 5.62269C29.1754 6.80619 27.9708 7.82094 26.375 7.98519C25.7443 8.04932 25.307 8.47569 25.3945 8.93807Z" fill="black"/>
<path d="M30.0218 16.3042C30.1967 16.6405 30.634 16.8475 31.0974 16.8475C31.234 16.8475 31.3721 16.8295 31.5071 16.7924C33.7014 16.1793 34.0298 15.0622 34.0298 14.4502C34.0298 13.4478 33.2487 12.1675 29.5307 11.7592C28.897 11.6995 28.3139 12.0067 28.2203 12.4679C28.1267 12.9303 28.561 13.3589 29.1885 13.4287C30.8734 13.6132 31.7281 13.9574 31.7281 14.4502C31.7281 14.6043 31.7281 14.9249 30.6877 15.2152C30.0939 15.3805 29.7947 15.8688 30.0218 16.3042Z" fill="black"/>
<path fill-rule="evenodd" clip-rule="evenodd" d="M17.3261 19.3898C14.7805 19.3898 7.03146 19.3898 7.03146 15.7954C7.03146 12.2157 14.7805 12.2157 17.3261 12.2157C19.8718 12.2157 27.6193 12.2157 27.6193 15.8146C27.6193 19.3898 20.1419 19.3898 17.3261 19.3898ZM17.3261 13.9032C13.6803 13.9032 9.33315 14.2317 9.33315 15.7954C9.33315 17.3716 13.6803 17.7023 17.3261 17.7023C20.972 17.7023 25.3176 17.3749 25.3176 15.8146C25.3176 14.2351 20.972 13.9032 17.3261 13.9032Z" fill="black"/>
<path d="M8.11783 9.66476C8.06566 9.66476 8.01196 9.66251 7.95825 9.65688C5.23459 9.37676 3.17842 7.64426 3.17228 5.62713C3.17228 3.61901 5.13178 1.92701 7.82936 1.60188C8.47536 1.52763 9.04772 1.83926 9.15206 2.29713C9.25487 2.75726 8.82982 3.19151 8.20376 3.26688C6.62174 3.45701 5.47396 4.44926 5.47396 5.62488C5.47703 6.80613 6.68158 7.82201 8.27588 7.98513C8.90655 8.04926 9.34387 8.47563 9.2564 8.93801C9.17507 9.35988 8.68251 9.66476 8.11783 9.66476Z" fill="black"/>
<path d="M3.14528 16.7925C3.28031 16.8296 3.41841 16.8476 3.55498 16.8476C4.01838 16.8476 4.4557 16.6406 4.63063 16.3042C4.85773 15.8688 4.55851 15.3806 3.96468 15.2152C2.92278 14.9238 2.92278 14.6043 2.92278 14.4502C2.92278 13.9575 3.77747 13.6132 5.46231 13.4287C6.0899 13.359 6.52415 12.9303 6.43055 12.468C6.33541 12.0067 5.75539 11.7007 5.12166 11.7592C1.40213 12.1676 0.621094 13.449 0.621094 14.4502C0.621094 15.0611 0.949468 16.1782 3.14528 16.7925Z" fill="black"/>
</svg>
