<svg width="37" height="29" viewBox="0 0 37 29" fill="none" xmlns="http://www.w3.org/2000/svg">
<path fill-rule="evenodd" clip-rule="evenodd" d="M18.7662 15.8967H18.8112C23.0112 15.8967 26.4262 12.4801 26.4262 8.28175C26.4262 4.08341 23.0112 0.666748 18.8112 0.666748C14.6128 0.666748 11.1978 4.08341 11.1978 8.27675C11.1895 10.3051 11.9712 12.2151 13.4012 13.6534C14.8278 15.0934 16.7328 15.8901 18.7662 15.8967ZM13.6978 8.28175C13.6978 5.46175 15.9912 3.16675 18.8112 3.16675C21.6312 3.16675 23.9262 5.46175 23.9262 8.28175C23.9262 11.1034 21.6312 13.3967 18.8112 13.3967H18.7695C17.4095 13.3917 16.1328 12.8567 15.1745 11.8917C14.2162 10.9267 13.6928 9.64842 13.6978 8.28175Z" fill="black"/>
<path d="M27.5746 13.1676C27.6629 13.7926 28.1979 14.2443 28.8113 14.2443C28.8679 14.2443 28.9263 14.2409 28.9846 14.2326C31.9429 13.8176 34.1779 11.2509 34.1846 8.25926C34.1846 5.28759 32.0563 2.78092 29.1263 2.29926C28.4413 2.19092 27.8029 2.64759 27.6896 3.32926C27.5779 4.01092 28.0396 4.65426 28.7196 4.76592C30.4379 5.04759 31.6846 6.51759 31.6846 8.25592C31.6813 10.0093 30.3729 11.5126 28.6396 11.7559C27.9546 11.8509 27.4796 12.4826 27.5746 13.1676Z" fill="black"/>
<path d="M32.6006 24.0803C32.7906 24.5787 33.2656 24.8853 33.7689 24.8853C33.9172 24.8853 34.0672 24.8587 34.2139 24.8037C36.5972 23.8953 36.9539 22.2403 36.9539 21.3337C36.9539 19.8487 36.1056 17.952 32.0672 17.347C31.3789 17.2587 30.7456 17.7137 30.6439 18.397C30.5422 19.082 31.0139 19.717 31.6956 19.8203C33.5256 20.0937 34.4539 20.6037 34.4539 21.3337C34.4539 21.562 34.4539 22.037 33.3239 22.467C32.6789 22.712 32.3539 23.4353 32.6006 24.0803Z" fill="black"/>
<path fill-rule="evenodd" clip-rule="evenodd" d="M18.8111 28.6516C16.0461 28.6516 7.62944 28.6516 7.62944 23.3267C7.62944 18.0233 16.0461 18.0233 18.8111 18.0233C21.5761 18.0233 29.9911 18.0233 29.9911 23.355C29.9911 28.6516 21.8694 28.6516 18.8111 28.6516ZM18.8111 20.5233C14.8511 20.5233 10.1294 21.01 10.1294 23.3267C10.1294 25.6617 14.8511 26.1516 18.8111 26.1516C22.7711 26.1516 27.4911 25.6667 27.4911 23.355C27.4911 21.015 22.7711 20.5233 18.8111 20.5233Z" fill="black"/>
<path d="M8.80941 14.2442C8.75274 14.2442 8.69441 14.2408 8.63608 14.2325C5.67774 13.8175 3.44441 11.2508 3.43774 8.2625C3.43774 5.2875 5.56608 2.78083 8.49608 2.29916C9.19774 2.18916 9.81941 2.65083 9.93274 3.32916C10.0444 4.01083 9.58274 4.65417 8.90274 4.76583C7.18441 5.0475 5.93774 6.5175 5.93774 8.25917C5.94108 10.0092 7.24941 11.5142 8.98108 11.7558C9.66608 11.8508 10.1411 12.4825 10.0461 13.1675C9.95774 13.7925 9.42274 14.2442 8.80941 14.2442Z" fill="black"/>
<path d="M3.40841 24.8037C3.55508 24.8587 3.70508 24.8854 3.85341 24.8854C4.35675 24.8854 4.83175 24.5787 5.02175 24.0804C5.26841 23.4354 4.94341 22.7121 4.29841 22.4671C3.16675 22.0354 3.16675 21.5621 3.16675 21.3337C3.16675 20.6037 4.09508 20.0937 5.92508 19.8204C6.60675 19.7171 7.07841 19.0821 6.97675 18.3971C6.87341 17.7137 6.24341 17.2604 5.55508 17.3471C1.51508 17.9521 0.666748 19.8504 0.666748 21.3337C0.666748 22.2387 1.02341 23.8937 3.40841 24.8037Z" fill="black"/>
</svg>
