<svg width="24" height="28" viewBox="0 0 24 28" fill="none" xmlns="http://www.w3.org/2000/svg">
<mask id="mask0_131_527" style="mask-type:luminance" maskUnits="userSpaceOnUse" x="0" y="0" width="24" height="23">
<path fill-rule="evenodd" clip-rule="evenodd" d="M0.75 0.75H23.8711V22.435H0.75V0.75Z" fill="white"/>
</mask>
<g mask="url(#mask0_131_527)">
<path fill-rule="evenodd" clip-rule="evenodd" d="M12.3088 2.625C7.94002 2.625 4.89502 6.0475 4.89502 9.11875C4.89502 11.7175 4.17377 12.9187 3.53627 13.9788C3.02502 14.83 2.62127 15.5025 2.62127 16.9637C2.83002 19.3212 4.38627 20.56 12.3088 20.56C20.1875 20.56 21.7925 19.2663 22 16.8825C21.9963 15.5025 21.5925 14.83 21.0813 13.9788C20.4438 12.9187 19.7225 11.7175 19.7225 9.11875C19.7225 6.0475 16.6775 2.625 12.3088 2.625ZM12.3088 22.435C6.46377 22.435 1.18127 22.0225 0.750017 17.0438C0.746267 14.9837 1.37502 13.9362 1.93002 13.0138C2.49127 12.0787 3.02002 11.1975 3.02002 9.11875C3.02002 5.0775 6.75252 0.75 12.3088 0.75C17.865 0.75 21.5975 5.0775 21.5975 9.11875C21.5975 11.1975 22.1263 12.0787 22.6875 13.0138C23.2425 13.9362 23.8713 14.9837 23.8713 16.9637C23.435 22.0225 18.1538 22.435 12.3088 22.435Z" fill="black"/>
</g>
<path fill-rule="evenodd" clip-rule="evenodd" d="M12.2478 27.625H12.2453C10.844 27.6238 9.51778 27.0063 8.51153 25.885C8.16528 25.5013 8.19653 24.9075 8.58153 24.5625C8.96653 24.215 9.55903 24.2463 9.90528 24.6325C10.5528 25.3538 11.384 25.75 12.2465 25.75H12.2478C13.114 25.75 13.949 25.3538 14.5978 24.6313C14.9453 24.2475 15.5378 24.2163 15.9215 24.5625C16.3065 24.9088 16.3378 25.5025 15.9915 25.8863C14.9815 27.0075 13.6528 27.625 12.2478 27.625Z" fill="black"/>
</svg>
