<svg width="44" height="47" viewBox="0 0 44 47" fill="none" xmlns="http://www.w3.org/2000/svg">
<path fill-rule="evenodd" clip-rule="evenodd" d="M41.2774 19.4593H2.65869C1.76169 19.4593 1.03369 18.7313 1.03369 17.8343C1.03369 16.9373 1.76169 16.2093 2.65869 16.2093H41.2774C42.1744 16.2093 42.9024 16.9373 42.9024 17.8343C42.9024 18.7313 42.1744 19.4593 41.2774 19.4593Z" fill="black"/>
<path fill-rule="evenodd" clip-rule="evenodd" d="M31.6029 27.9208C30.7059 27.9208 29.9692 27.1928 29.9692 26.2958C29.9692 25.3988 30.6864 24.6708 31.5834 24.6708H31.6029C32.4999 24.6708 33.2279 25.3988 33.2279 26.2958C33.2279 27.1928 32.4999 27.9208 31.6029 27.9208Z" fill="black"/>
<path fill-rule="evenodd" clip-rule="evenodd" d="M21.9882 27.9208C21.0912 27.9208 20.3545 27.1928 20.3545 26.2958C20.3545 25.3988 21.0717 24.6708 21.9687 24.6708H21.9882C22.8852 24.6708 23.6132 25.3988 23.6132 26.2958C23.6132 27.1928 22.8852 27.9208 21.9882 27.9208Z" fill="black"/>
<path fill-rule="evenodd" clip-rule="evenodd" d="M12.3536 27.9208C11.4566 27.9208 10.7178 27.1928 10.7178 26.2958C10.7178 25.3988 11.4371 24.6708 12.3341 24.6708H12.3536C13.2506 24.6708 13.9786 25.3988 13.9786 26.2958C13.9786 27.1928 13.2506 27.9208 12.3536 27.9208Z" fill="black"/>
<path fill-rule="evenodd" clip-rule="evenodd" d="M31.6029 36.342C30.7059 36.342 29.9692 35.614 29.9692 34.717C29.9692 33.82 30.6864 33.092 31.5834 33.092H31.6029C32.4999 33.092 33.2279 33.82 33.2279 34.717C33.2279 35.614 32.4999 36.342 31.6029 36.342Z" fill="black"/>
<path fill-rule="evenodd" clip-rule="evenodd" d="M21.9882 36.342C21.0912 36.342 20.3545 35.614 20.3545 34.717C20.3545 33.82 21.0717 33.092 21.9687 33.092H21.9882C22.8852 33.092 23.6132 33.82 23.6132 34.717C23.6132 35.614 22.8852 36.342 21.9882 36.342Z" fill="black"/>
<path fill-rule="evenodd" clip-rule="evenodd" d="M12.3536 36.342C11.4566 36.342 10.7178 35.614 10.7178 34.717C10.7178 33.82 11.4371 33.092 12.3341 33.092H12.3536C13.2506 33.092 13.9786 33.82 13.9786 34.717C13.9786 35.614 13.2506 36.342 12.3536 36.342Z" fill="black"/>
<path fill-rule="evenodd" clip-rule="evenodd" d="M30.7192 10.5472C29.8222 10.5472 29.0942 9.81916 29.0942 8.92216V1.79166C29.0942 0.894657 29.8222 0.166656 30.7192 0.166656C31.6162 0.166656 32.3442 0.894657 32.3442 1.79166V8.92216C32.3442 9.81916 31.6162 10.5472 30.7192 10.5472Z" fill="black"/>
<path fill-rule="evenodd" clip-rule="evenodd" d="M13.2168 10.5472C12.3198 10.5472 11.5918 9.81916 11.5918 8.92216V1.79166C11.5918 0.894657 12.3198 0.166656 13.2168 0.166656C14.1138 0.166656 14.8418 0.894657 14.8418 1.79166V8.92216C14.8418 9.81916 14.1138 10.5472 13.2168 10.5472Z" fill="black"/>
<mask id="mask0_124_2" style="mask-type:luminance" maskUnits="userSpaceOnUse" x="0" y="3" width="44" height="44">
<path fill-rule="evenodd" clip-rule="evenodd" d="M0.833496 3.58804H43.0835V46.75H0.833496V3.58804Z" fill="white"/>
</mask>
<g mask="url(#mask0_124_2)">
<path fill-rule="evenodd" clip-rule="evenodd" d="M12.7957 6.83804C7.1775 6.83804 4.0835 9.83454 4.0835 15.275V34.8812C4.0835 40.4409 7.1775 43.5002 12.7957 43.5002H31.1213C36.7395 43.5002 39.8335 40.4972 39.8335 35.0459V15.275C39.8422 12.5992 39.1228 10.5192 37.695 9.08921C36.226 7.61588 33.9618 6.83804 31.1408 6.83804H12.7957ZM31.1213 46.7502H12.7957C5.41816 46.7502 0.833496 42.2024 0.833496 34.8812V15.275C0.833496 8.06438 5.41816 3.58804 12.7957 3.58804H31.1408C34.8437 3.58804 37.9052 4.69738 39.996 6.79254C42.0262 8.83138 43.0943 11.7629 43.0835 15.2794V35.0459C43.0835 42.2652 38.4988 46.7502 31.1213 46.7502Z" fill="black"/>
</g>
</svg>
