<svg width="33" height="31" viewBox="0 0 33 31" fill="none" xmlns="http://www.w3.org/2000/svg">
<path fill-rule="evenodd" clip-rule="evenodd" d="M31.2135 13.0312H1.96041C1.28094 13.0312 0.729492 12.5552 0.729492 11.9687C0.729492 11.3822 1.28094 10.9062 1.96041 10.9062H31.2135C31.893 10.9062 32.4445 11.3822 32.4445 11.9687C32.4445 12.5552 31.893 13.0312 31.2135 13.0312" fill="black"/>
<path fill-rule="evenodd" clip-rule="evenodd" d="M23.8849 18.5637C23.2055 18.5637 22.6475 18.0877 22.6475 17.5012C22.6475 16.9147 23.1907 16.4387 23.8702 16.4387H23.8849C24.5644 16.4387 25.1159 16.9147 25.1159 17.5012C25.1159 18.0877 24.5644 18.5637 23.8849 18.5637" fill="black"/>
<path fill-rule="evenodd" clip-rule="evenodd" d="M16.602 18.5637C15.9225 18.5637 15.3645 18.0877 15.3645 17.5012C15.3645 16.9147 15.9077 16.4387 16.5872 16.4387H16.602C17.2814 16.4387 17.8329 16.9147 17.8329 17.5012C17.8329 18.0877 17.2814 18.5637 16.602 18.5637" fill="black"/>
<path fill-rule="evenodd" clip-rule="evenodd" d="M9.30382 18.5637C8.62435 18.5637 8.0647 18.0877 8.0647 17.5012C8.0647 16.9147 8.60958 16.4387 9.28905 16.4387H9.30382C9.98329 16.4387 10.5347 16.9147 10.5347 17.5012C10.5347 18.0877 9.98329 18.5637 9.30382 18.5637" fill="black"/>
<path fill-rule="evenodd" clip-rule="evenodd" d="M23.8849 24.0698C23.2055 24.0698 22.6475 23.5938 22.6475 23.0073C22.6475 22.4208 23.1907 21.9448 23.8702 21.9448H23.8849C24.5644 21.9448 25.1159 22.4208 25.1159 23.0073C25.1159 23.5938 24.5644 24.0698 23.8849 24.0698" fill="black"/>
<path fill-rule="evenodd" clip-rule="evenodd" d="M16.602 24.0698C15.9225 24.0698 15.3645 23.5938 15.3645 23.0073C15.3645 22.4208 15.9077 21.9448 16.5872 21.9448H16.602C17.2814 21.9448 17.8329 22.4208 17.8329 23.0073C17.8329 23.5938 17.2814 24.0698 16.602 24.0698" fill="black"/>
<path fill-rule="evenodd" clip-rule="evenodd" d="M9.30382 24.0698C8.62435 24.0698 8.0647 23.5938 8.0647 23.0073C8.0647 22.4208 8.60958 21.9448 9.28905 21.9448H9.30382C9.98329 21.9448 10.5347 22.4208 10.5347 23.0073C10.5347 23.5938 9.98329 24.0698 9.30382 24.0698" fill="black"/>
<path fill-rule="evenodd" clip-rule="evenodd" d="M23.2158 7.204C22.5363 7.204 21.9849 6.728 21.9849 6.1415V1.47925C21.9849 0.892748 22.5363 0.416748 23.2158 0.416748C23.8952 0.416748 24.4467 0.892748 24.4467 1.47925V6.1415C24.4467 6.728 23.8952 7.204 23.2158 7.204" fill="black"/>
<path fill-rule="evenodd" clip-rule="evenodd" d="M9.95772 7.204C9.27826 7.204 8.72681 6.728 8.72681 6.1415V1.47925C8.72681 0.892748 9.27826 0.416748 9.95772 0.416748C10.6372 0.416748 11.1886 0.892748 11.1886 1.47925V6.1415C11.1886 6.728 10.6372 7.204 9.95772 7.204" fill="black"/>
<mask id="mask0_61_584" style="mask-type:luminance" maskUnits="userSpaceOnUse" x="0" y="2" width="33" height="29">
<path fill-rule="evenodd" clip-rule="evenodd" d="M0.577637 2.65381H32.5815V30.8751H0.577637V2.65381Z" fill="white"/>
</mask>
<g mask="url(#mask0_61_584)">
<path fill-rule="evenodd" clip-rule="evenodd" d="M9.63882 4.77881C5.38313 4.77881 3.03947 6.73806 3.03947 10.2953V23.1147C3.03947 26.7499 5.38313 28.7502 9.63882 28.7502H23.5203C27.776 28.7502 30.1196 26.7867 30.1196 23.2224V10.2953C30.1262 8.54573 29.5813 7.18573 28.4997 6.25073C27.387 5.28739 25.6719 4.77881 23.535 4.77881H9.63882ZM23.5203 30.8752H9.63882C4.05046 30.8752 0.577637 27.9016 0.577637 23.1147V10.2953C0.577637 5.58064 4.05046 2.65381 9.63882 2.65381H23.535C26.3399 2.65381 28.6589 3.37914 30.2427 4.74906C31.7805 6.08214 32.5897 7.99889 32.5815 10.2981V23.2224C32.5815 27.9427 29.1086 30.8752 23.5203 30.8752V30.8752Z" fill="black"/>
</g>
</svg>
