<svg width="33" height="31" viewBox="0 0 33 31" fill="none" xmlns="http://www.w3.org/2000/svg">
<path fill-rule="evenodd" clip-rule="evenodd" d="M31.4445 13.0312H1.73779C1.04779 13.0312 0.487793 12.5552 0.487793 11.9688C0.487793 11.3822 1.04779 10.9062 1.73779 10.9062H31.4445C32.1345 10.9062 32.6945 11.3822 32.6945 11.9688C32.6945 12.5552 32.1345 13.0312 31.4445 13.0312Z" fill="black"/>
<path fill-rule="evenodd" clip-rule="evenodd" d="M24.0023 18.5637C23.3123 18.5637 22.7456 18.0877 22.7456 17.5012C22.7456 16.9147 23.2973 16.4387 23.9873 16.4387H24.0023C24.6923 16.4387 25.2523 16.9147 25.2523 17.5012C25.2523 18.0877 24.6923 18.5637 24.0023 18.5637Z" fill="black"/>
<path fill-rule="evenodd" clip-rule="evenodd" d="M16.6063 18.5637C15.9163 18.5637 15.3496 18.0877 15.3496 17.5012C15.3496 16.9147 15.9013 16.4387 16.5913 16.4387H16.6063C17.2963 16.4387 17.8563 16.9147 17.8563 17.5012C17.8563 18.0877 17.2963 18.5637 16.6063 18.5637Z" fill="black"/>
<path fill-rule="evenodd" clip-rule="evenodd" d="M9.19486 18.5637C8.50486 18.5637 7.93652 18.0877 7.93652 17.5012C7.93652 16.9147 8.48986 16.4387 9.17986 16.4387H9.19486C9.88486 16.4387 10.4449 16.9147 10.4449 17.5012C10.4449 18.0877 9.88486 18.5637 9.19486 18.5637Z" fill="black"/>
<path fill-rule="evenodd" clip-rule="evenodd" d="M24.0023 24.0698C23.3123 24.0698 22.7456 23.5938 22.7456 23.0073C22.7456 22.4208 23.2973 21.9448 23.9873 21.9448H24.0023C24.6923 21.9448 25.2523 22.4208 25.2523 23.0073C25.2523 23.5938 24.6923 24.0698 24.0023 24.0698Z" fill="black"/>
<path fill-rule="evenodd" clip-rule="evenodd" d="M16.6063 24.0698C15.9163 24.0698 15.3496 23.5938 15.3496 23.0073C15.3496 22.4208 15.9013 21.9448 16.5913 21.9448H16.6063C17.2963 21.9448 17.8563 22.4208 17.8563 23.0073C17.8563 23.5938 17.2963 24.0698 16.6063 24.0698Z" fill="black"/>
<path fill-rule="evenodd" clip-rule="evenodd" d="M9.19486 24.0698C8.50486 24.0698 7.93652 23.5938 7.93652 23.0073C7.93652 22.4208 8.48986 21.9448 9.17986 21.9448H9.19486C9.88486 21.9448 10.4449 22.4208 10.4449 23.0073C10.4449 23.5938 9.88486 24.0698 9.19486 24.0698Z" fill="black"/>
<path fill-rule="evenodd" clip-rule="evenodd" d="M23.3228 7.204C22.6328 7.204 22.0728 6.728 22.0728 6.1415V1.47925C22.0728 0.892748 22.6328 0.416748 23.3228 0.416748C24.0128 0.416748 24.5728 0.892748 24.5728 1.47925V6.1415C24.5728 6.728 24.0128 7.204 23.3228 7.204Z" fill="black"/>
<path fill-rule="evenodd" clip-rule="evenodd" d="M9.85889 7.204C9.16889 7.204 8.60889 6.728 8.60889 6.1415V1.47925C8.60889 0.892748 9.16889 0.416748 9.85889 0.416748C10.5489 0.416748 11.1089 0.892748 11.1089 1.47925V6.1415C11.1089 6.728 10.5489 7.204 9.85889 7.204Z" fill="black"/>
<mask id="mask0_150_653" style="mask-type:luminance" maskUnits="userSpaceOnUse" x="0" y="2" width="33" height="29">
<path fill-rule="evenodd" clip-rule="evenodd" d="M0.333496 2.65381H32.8335V30.8751H0.333496V2.65381Z" fill="white"/>
</mask>
<g mask="url(#mask0_150_653)">
<path fill-rule="evenodd" clip-rule="evenodd" d="M9.53516 4.77881C5.2135 4.77881 2.8335 6.73806 2.8335 10.2953V23.1147C2.8335 26.7499 5.2135 28.7502 9.53516 28.7502H23.6318C27.9535 28.7502 30.3335 26.7867 30.3335 23.2224V10.2953C30.3402 8.54573 29.7868 7.18573 28.6885 6.25073C27.5585 5.28739 25.8168 4.77881 23.6468 4.77881H9.53516ZM23.6318 30.8752H9.53516C3.86016 30.8752 0.333496 27.9016 0.333496 23.1147V10.2953C0.333496 5.58064 3.86016 2.65381 9.53516 2.65381H23.6468C26.4952 2.65381 28.8502 3.37914 30.4585 4.74906C32.0202 6.08214 32.8418 7.99889 32.8335 10.2981V23.2224C32.8335 27.9427 29.3068 30.8752 23.6318 30.8752Z" fill="black"/>
</g>
</svg>
