<svg width="14" height="14" viewBox="0 0 14 14" fill="none" xmlns="http://www.w3.org/2000/svg">
<path d="M2 2.625C1.73478 2.625 1.48043 2.73036 1.29289 2.91789C1.10536 3.10543 1 3.35978 1 3.625V11.875C1 12.1402 1.10536 12.3946 1.29289 12.5821C1.48043 12.7696 1.73478 12.875 2 12.875H12C12.2652 12.875 12.5196 12.7696 12.7071 12.5821C12.8946 12.3946 13 12.1402 13 11.875V3.625C13 3.35978 12.8946 3.10543 12.7071 2.91789C12.5196 2.73036 12.2652 2.625 12 2.625H2Z" fill="#FDDC5C"/>
<path fill-rule="evenodd" clip-rule="evenodd" d="M3.5 0.25C3.84518 0.25 4.125 0.529822 4.125 0.875V2H9.875V0.875C9.875 0.529822 10.1548 0.25 10.5 0.25C10.8452 0.25 11.125 0.529822 11.125 0.875V2H12C12.431 2 12.8443 2.1712 13.149 2.47595C13.4538 2.7807 13.625 3.19402 13.625 3.625V11.875C13.625 12.306 13.4538 12.7193 13.149 13.024C12.8443 13.3288 12.431 13.5 12 13.5H2C1.56902 13.5 1.1557 13.3288 0.850951 13.024C0.546205 12.7193 0.375 12.306 0.375 11.875V3.625C0.375 3.19402 0.546205 2.7807 0.850951 2.47595C1.1557 2.1712 1.56902 2 2 2H2.875V0.875C2.875 0.529822 3.15482 0.25 3.5 0.25ZM9.875 3.25V3.875C9.875 4.22018 10.1548 4.5 10.5 4.5C10.8452 4.5 11.125 4.22018 11.125 3.875V3.25H12C12.0995 3.25 12.1948 3.28951 12.2652 3.35983C12.3355 3.43016 12.375 3.52554 12.375 3.625V11.875C12.375 11.9745 12.3355 12.0698 12.2652 12.1402C12.1948 12.2105 12.0995 12.25 12 12.25H2C1.90054 12.25 1.80516 12.2105 1.73483 12.1402C1.66451 12.0698 1.625 11.9745 1.625 11.875V3.625C1.625 3.52554 1.66451 3.43016 1.73483 3.35983C1.80516 3.28951 1.90054 3.25 2 3.25H2.875V3.875C2.875 4.22018 3.15482 4.5 3.5 4.5C3.84518 4.5 4.125 4.22018 4.125 3.875V3.25H9.875ZM8.13566 5C8.26838 4.99992 8.39568 5.0526 8.48952 5.14645L10.1036 6.76048C10.2988 6.95574 10.2988 7.27233 10.1036 7.46759L6.47197 11.0992C6.39468 11.1765 6.29419 11.2263 6.18587 11.241L4.31745 11.4954C4.16226 11.5166 4.00613 11.4637 3.89563 11.3527C3.78514 11.2417 3.73304 11.0854 3.75489 10.9303L4.01804 9.06184C4.03315 8.95459 4.08268 8.85514 4.15918 8.77845L7.78198 5.14687C7.87571 5.05292 8.00295 5.00008 8.13566 5Z" fill="#0C098C"/>
</svg>
