<svg width="28" height="22" viewBox="0 0 28 22" fill="none" xmlns="http://www.w3.org/2000/svg">
<path d="M27.9284 6.71422C27.9284 6.14589 27.7026 5.60085 27.3008 5.19898C26.899 4.79713 26.3539 4.57136 25.7856 4.57136H21.4999L18.2856 0.285645H9.71415L6.49986 4.57136H2.21415C1.64582 4.57136 1.10078 4.79713 0.698917 5.19898C0.297054 5.60085 0.0712891 6.14589 0.0712891 6.71422V19.5714C0.0712891 20.1396 0.297054 20.6848 0.698917 21.0866C1.10078 21.4884 1.64582 21.7142 2.21415 21.7142H25.7856C26.3539 21.7142 26.899 21.4884 27.3008 21.0866C27.7026 20.6848 27.9284 20.1396 27.9284 19.5714V6.71422Z" stroke="black" stroke-width="2" stroke-linecap="round" stroke-linejoin="round"/>
<path d="M13.9997 16.8929C16.6625 16.8929 18.8211 14.7342 18.8211 12.0714C18.8211 9.40863 16.6625 7.25 13.9997 7.25C11.3369 7.25 9.17822 9.40863 9.17822 12.0714C9.17822 14.7342 11.3369 16.8929 13.9997 16.8929Z" stroke="black" stroke-width="2" stroke-linecap="round" stroke-linejoin="round"/>
</svg>
