<svg width="27" height="24" viewBox="0 0 27 24" fill="none" xmlns="http://www.w3.org/2000/svg">
<path fill-rule="evenodd" clip-rule="evenodd" d="M5.75251 2.229C2.04736 2.229 2.04736 2.48034 2.04736 5.55192V5.58213C2.04736 6.91975 2.04736 7.88642 2.41249 8.29484C2.76953 8.69117 3.82987 8.87484 5.75251 8.87484C7.67515 8.87484 8.7355 8.68996 9.09254 8.29363C9.45766 7.88642 9.45766 6.91975 9.45766 5.58092C9.45766 2.48034 9.45766 2.229 5.75251 2.229M5.75251 10.6873C3.48092 10.6873 1.77655 10.4735 0.840153 9.43067C0.0263672 8.52563 0.0263672 7.29071 0.0263672 5.58213L1.03686 5.55192H0.0263672C0.0263672 2.084 0.270234 0.416504 5.75251 0.416504C11.2348 0.416504 11.4787 2.084 11.4787 5.55192C11.4787 7.2895 11.4787 8.52563 10.6649 9.43067C9.72848 10.4735 8.02411 10.6873 5.75251 10.6873" fill="black"/>
<path fill-rule="evenodd" clip-rule="evenodd" d="M20.5728 2.229C16.8677 2.229 16.8677 2.48034 16.8677 5.55192V5.58213C16.8677 6.91975 16.8677 7.88642 17.2328 8.29484C17.5898 8.69117 18.6502 8.87484 20.5728 8.87484C22.4955 8.87484 23.5558 8.68996 23.9129 8.29363C24.278 7.88642 24.278 6.91975 24.278 5.58092C24.278 2.48034 24.278 2.229 20.5728 2.229M20.5728 10.6873C18.3012 10.6873 16.5969 10.4735 15.6605 9.43067C14.8467 8.52563 14.8467 7.29071 14.8467 5.58213L15.8572 5.55192H14.8467C14.8467 2.084 15.0905 0.416504 20.5728 0.416504C26.0551 0.416504 26.299 2.084 26.299 5.55192C26.299 7.2895 26.299 8.52563 25.4852 9.43067C24.5488 10.4735 22.8444 10.6873 20.5728 10.6873" fill="black"/>
<path fill-rule="evenodd" clip-rule="evenodd" d="M5.75251 15.5205C2.04736 15.5205 2.04736 15.7718 2.04736 18.8434V18.8736C2.04736 20.2113 2.04736 21.1779 2.41249 21.5863C2.76953 21.9827 3.82987 22.1663 5.75251 22.1663C7.67515 22.1663 8.7355 21.9815 9.09254 21.5851C9.45766 21.1779 9.45766 20.2113 9.45766 18.8724C9.45766 15.7718 9.45766 15.5205 5.75251 15.5205M5.75251 23.9788C3.48092 23.9788 1.77655 23.765 0.840153 22.7222C0.0263672 21.8171 0.0263672 20.5822 0.0263672 18.8736L1.03686 18.8434H0.0263672C0.0263672 15.3755 0.270234 13.708 5.75251 13.708C11.2348 13.708 11.4787 15.3755 11.4787 18.8434C11.4787 20.581 11.4787 21.8171 10.6649 22.7222C9.72848 23.765 8.02411 23.9788 5.75251 23.9788" fill="black"/>
<path fill-rule="evenodd" clip-rule="evenodd" d="M20.5728 15.5205C16.8677 15.5205 16.8677 15.7718 16.8677 18.8434V18.8736C16.8677 20.2113 16.8677 21.1779 17.2328 21.5863C17.5898 21.9827 18.6502 22.1663 20.5728 22.1663C22.4955 22.1663 23.5558 21.9815 23.9129 21.5851C24.278 21.1779 24.278 20.2113 24.278 18.8724C24.278 15.7718 24.278 15.5205 20.5728 15.5205M20.5728 23.9788C18.3012 23.9788 16.5969 23.765 15.6605 22.7222C14.8467 21.8171 14.8467 20.5822 14.8467 18.8736L15.8572 18.8434H14.8467C14.8467 15.3755 15.0905 13.708 20.5728 13.708C26.0551 13.708 26.299 15.3755 26.299 18.8434C26.299 20.581 26.299 21.8171 25.4852 22.7222C24.5488 23.765 22.8444 23.9788 20.5728 23.9788" fill="black"/>
</svg>
