<svg width="35" height="36" viewBox="0 0 35 36" fill="none" xmlns="http://www.w3.org/2000/svg">
<path fill-rule="evenodd" clip-rule="evenodd" d="M7.83333 3.07692C3.25 3.07692 3.25 3.50359 3.25 8.71795V8.76923C3.25 11.04 3.25 12.681 3.70167 13.3744C4.14333 14.0472 5.455 14.359 7.83333 14.359C10.2117 14.359 11.5233 14.0451 11.965 13.3723C12.4167 12.681 12.4167 11.04 12.4167 8.76718C12.4167 3.50359 12.4167 3.07692 7.83333 3.07692ZM7.83333 17.4359C5.02333 17.4359 2.915 17.0728 1.75667 15.3026C0.75 13.7662 0.75 11.6697 0.75 8.76923L2 8.71795H0.75C0.75 2.83077 1.05167 0 7.83333 0C14.615 0 14.9167 2.83077 14.9167 8.71795C14.9167 11.6677 14.9167 13.7662 13.91 15.3026C12.7517 17.0728 10.6433 17.4359 7.83333 17.4359Z" fill="black"/>
<path fill-rule="evenodd" clip-rule="evenodd" d="M26.9998 3.07692C22.4165 3.07692 22.4165 3.50359 22.4165 8.71795V8.76923C22.4165 11.04 22.4165 12.681 22.8682 13.3744C23.3098 14.0472 24.6215 14.359 26.9998 14.359C29.3782 14.359 30.6898 14.0451 31.1315 13.3723C31.5832 12.681 31.5832 11.04 31.5832 8.76718C31.5832 3.50359 31.5832 3.07692 26.9998 3.07692ZM26.9998 17.4359C24.1898 17.4359 22.0815 17.0728 20.9232 15.3026C19.9165 13.7662 19.9165 11.6697 19.9165 8.76923L21.1665 8.71795H19.9165C19.9165 2.83077 20.2182 0 26.9998 0C33.7815 0 34.0832 2.83077 34.0832 8.71795C34.0832 11.6677 34.0832 13.7662 33.0765 15.3026C31.9182 17.0728 29.8098 17.4359 26.9998 17.4359Z" fill="black"/>
<path fill-rule="evenodd" clip-rule="evenodd" d="M7.83333 21.5127C3.25 21.5127 3.25 21.9394 3.25 27.1537V27.205C3.25 29.4758 3.25 31.1168 3.70167 31.8102C4.14333 32.483 5.455 32.7948 7.83333 32.7948C10.2117 32.7948 11.5233 32.4809 11.965 31.8081C12.4167 31.1168 12.4167 29.4758 12.4167 27.203C12.4167 21.9394 12.4167 21.5127 7.83333 21.5127ZM7.83333 35.8717C5.02333 35.8717 2.915 35.5086 1.75667 33.7384C0.75 32.2019 0.75 30.1055 0.75 27.205L2 27.1537H0.75C0.75 21.2666 1.05167 18.4358 7.83333 18.4358C14.615 18.4358 14.9167 21.2666 14.9167 27.1537C14.9167 30.1035 14.9167 32.2019 13.91 33.7384C12.7517 35.5086 10.6433 35.8717 7.83333 35.8717Z" fill="black"/>
<path fill-rule="evenodd" clip-rule="evenodd" d="M26.9998 21.5127C22.4165 21.5127 22.4165 21.9394 22.4165 27.1537V27.205C22.4165 29.4758 22.4165 31.1168 22.8682 31.8102C23.3098 32.483 24.6215 32.7948 26.9998 32.7948C29.3782 32.7948 30.6898 32.4809 31.1315 31.8081C31.5832 31.1168 31.5832 29.4758 31.5832 27.203C31.5832 21.9394 31.5832 21.5127 26.9998 21.5127ZM26.9998 35.8717C24.1898 35.8717 22.0815 35.5086 20.9232 33.7384C19.9165 32.2019 19.9165 30.1055 19.9165 27.205L21.1665 27.1537H19.9165C19.9165 21.2666 20.2182 18.4358 26.9998 18.4358C33.7815 18.4358 34.0832 21.2666 34.0832 27.1537C34.0832 30.1035 34.0832 32.2019 33.0765 33.7384C31.9182 35.5086 29.8098 35.8717 26.9998 35.8717Z" fill="black"/>
</svg>
