<svg width="27" height="25" viewBox="0 0 27 25" fill="none" xmlns="http://www.w3.org/2000/svg">
<path fill-rule="evenodd" clip-rule="evenodd" d="M6.253 2.72919C2.54785 2.72919 2.54785 2.98052 2.54785 6.0521V6.08231C2.54785 7.41994 2.54785 8.3866 2.91297 8.79502C3.27002 9.19135 4.33036 9.37502 6.253 9.37502C8.17564 9.37502 9.23598 9.19015 9.59303 8.79381C9.95815 8.3866 9.95815 7.41994 9.95815 6.0811C9.95815 2.98052 9.95815 2.72919 6.253 2.72919ZM6.253 11.1875C3.98141 11.1875 2.27703 10.9736 1.34064 9.93085C0.526855 9.02581 0.526855 7.79089 0.526855 6.08231L1.53735 6.0521H0.526855C0.526855 2.58419 0.770722 0.916687 6.253 0.916687C11.7353 0.916687 11.9791 2.58419 11.9791 6.0521C11.9791 7.78969 11.9791 9.02581 11.1654 9.93085C10.229 10.9736 8.5246 11.1875 6.253 11.1875Z" fill="black"/>
<path fill-rule="evenodd" clip-rule="evenodd" d="M21.0738 2.72919C17.3686 2.72919 17.3686 2.98052 17.3686 6.0521V6.08231C17.3686 7.41994 17.3686 8.3866 17.7338 8.79502C18.0908 9.19135 19.1512 9.37502 21.0738 9.37502C22.9964 9.37502 24.0568 9.19015 24.4138 8.79381C24.779 8.3866 24.779 7.41994 24.779 6.0811C24.779 2.98052 24.779 2.72919 21.0738 2.72919ZM21.0738 11.1875C18.8022 11.1875 17.0978 10.9736 16.1614 9.93085C15.3477 9.02581 15.3477 7.79089 15.3477 6.08231L16.3582 6.0521H15.3477C15.3477 2.58419 15.5915 0.916687 21.0738 0.916687C26.5561 0.916687 26.7999 2.58419 26.7999 6.0521C26.7999 7.78969 26.7999 9.02581 25.9862 9.93085C25.0498 10.9736 23.3454 11.1875 21.0738 11.1875Z" fill="black"/>
<path fill-rule="evenodd" clip-rule="evenodd" d="M6.253 16.0209C2.54785 16.0209 2.54785 16.2722 2.54785 19.3438V19.374C2.54785 20.7116 2.54785 21.6783 2.91297 22.0867C3.27002 22.483 4.33036 22.6667 6.253 22.6667C8.17564 22.6667 9.23598 22.4818 9.59303 22.0855C9.95815 21.6783 9.95815 20.7116 9.95815 19.3728C9.95815 16.2722 9.95815 16.0209 6.253 16.0209ZM6.253 24.4792C3.98141 24.4792 2.27703 24.2653 1.34064 23.2225C0.526855 22.3175 0.526855 21.0826 0.526855 19.374L1.53735 19.3438H0.526855C0.526855 15.8759 0.770722 14.2084 6.253 14.2084C11.7353 14.2084 11.9791 15.8759 11.9791 19.3438C11.9791 21.0814 11.9791 22.3175 11.1654 23.2225C10.229 24.2653 8.5246 24.4792 6.253 24.4792Z" fill="black"/>
<path fill-rule="evenodd" clip-rule="evenodd" d="M21.0738 16.0209C17.3686 16.0209 17.3686 16.2722 17.3686 19.3438V19.374C17.3686 20.7116 17.3686 21.6783 17.7338 22.0867C18.0908 22.483 19.1512 22.6667 21.0738 22.6667C22.9964 22.6667 24.0568 22.4818 24.4138 22.0855C24.779 21.6783 24.779 20.7116 24.779 19.3728C24.779 16.2722 24.779 16.0209 21.0738 16.0209ZM21.0738 24.4792C18.8022 24.4792 17.0978 24.2653 16.1614 23.2225C15.3477 22.3175 15.3477 21.0826 15.3477 19.374L16.3582 19.3438H15.3477C15.3477 15.8759 15.5915 14.2084 21.0738 14.2084C26.5561 14.2084 26.7999 15.8759 26.7999 19.3438C26.7999 21.0814 26.7999 22.3175 25.9862 23.2225C25.0498 24.2653 23.3454 24.4792 21.0738 24.4792Z" fill="black"/>
</svg>
