<svg width="26" height="27" viewBox="0 0 26 27" fill="none" xmlns="http://www.w3.org/2000/svg">
<path d="M17.3396 9.64282C19.5134 9.64282 21.5982 10.5064 23.1353 12.0435C24.6724 13.5806 25.536 15.6654 25.536 17.8393C25.5412 19.4527 25.0642 21.0308 24.1667 22.3714L25.536 26.0357L20.9267 25.2064C19.8181 25.747 18.602 26.0305 17.3687 26.0357C16.1355 26.0409 14.9169 25.7676 13.8039 25.2365C12.6908 24.7054 11.712 23.9297 10.9404 22.9677C10.1687 22.0057 9.62408 20.882 9.3471 19.6801C9.07011 18.4784 9.06788 17.2296 9.3406 16.0268C9.61332 14.824 10.1539 13.6983 10.9222 12.7336C11.6904 11.7688 12.6664 10.9898 13.7776 10.4547C14.8887 9.91952 16.1063 9.64201 17.3396 9.64282Z" stroke="black" stroke-width="2" stroke-linecap="round" stroke-linejoin="round"/>
<path d="M18.5158 4.84069C17.2171 3.18804 15.4353 1.98148 13.4186 1.38901C11.4019 0.796544 9.2507 0.847647 7.26442 1.5352C5.27815 2.22277 3.5557 3.51256 2.33686 5.22501C1.11804 6.93745 0.463509 8.98735 0.4644 11.0893C0.458424 13.0873 1.0494 15.0415 2.16154 16.7014L0.4644 21.2142L4.55297 20.4813" stroke="black" stroke-width="2" stroke-linecap="round" stroke-linejoin="round"/>
</svg>
