<svg width="30" height="30" viewBox="0 0 30 30" fill="none" xmlns="http://www.w3.org/2000/svg">
<path fill-rule="evenodd" clip-rule="evenodd" d="M18.2144 1.33929H5.62507C5.05674 1.33929 4.51171 1.56506 4.10983 1.96692C3.70798 2.36879 3.48221 2.91382 3.48221 3.48215V22.2322L1.33936 28.6607L9.91078 26.5179H26.5179C27.0862 26.5179 27.6314 26.292 28.0331 25.8902C28.4349 25.4884 28.6608 24.9433 28.6608 24.375V11.5179H27.7282L21.4874 17.7588C20.9076 18.3385 20.1539 18.7123 19.3415 18.8229L14.7772 19.4443C13.6133 19.6028 12.4423 19.2067 11.6136 18.3741C10.7849 17.5416 10.3942 16.3688 10.558 15.2056L11.2008 10.6413C11.3142 9.83667 11.6858 9.09063 12.2597 8.51547L18.2144 2.54817V1.33929Z" fill="#FF7972"/>
<path fill-rule="evenodd" clip-rule="evenodd" d="M24.9851 1.50966e-07C25.2695 -0.000150691 25.542 0.112743 25.7432 0.313815L29.6861 4.25668C30.1044 4.67509 30.1044 5.35348 29.6861 5.77189L19.5932 15.8647C19.4276 16.0304 19.2122 16.1372 18.9801 16.1688L14.4158 16.7902C14.0833 16.8355 13.7487 16.7223 13.5119 16.4844C13.2751 16.2466 13.1635 15.9115 13.2103 15.5791L13.8532 11.0149C13.8855 10.785 13.9917 10.5718 14.1557 10.4075L24.2272 0.314621C24.428 0.113335 24.7007 0.000151504 24.9851 1.50966e-07ZM5.05681 2.91392C5.20751 2.76324 5.4119 2.67857 5.62503 2.67857H17.6786C18.4183 2.67857 19.0179 2.07895 19.0179 1.33929C19.0179 0.599619 18.4183 1.50966e-07 17.6786 1.50966e-07H5.62503C4.7015 1.50966e-07 3.81581 0.366868 3.16278 1.0199C2.50974 1.67292 2.14288 2.55861 2.14288 3.48214V22.0149L0.0687554 28.2373C-0.0858213 28.701 0.024525 29.2121 0.35665 29.5708C0.688774 29.9293 1.18992 30.0786 1.66414 29.9599L10.0756 27.8571H26.5179C27.4415 27.8571 28.3271 27.4903 28.98 26.8371C29.6332 26.1842 30 25.2986 30 24.375V12.3214C30 11.5818 29.4005 10.9821 28.6607 10.9821C27.921 10.9821 27.3215 11.5818 27.3215 12.3214V24.375C27.3215 24.5882 27.2368 24.7924 27.0862 24.9433C26.9353 25.0939 26.7311 25.1786 26.5179 25.1786H9.91074C9.80124 25.1786 9.69215 25.1921 9.58593 25.2186L3.38139 26.7696L4.75273 22.6556C4.79825 22.5191 4.82146 22.3761 4.82146 22.2321V3.48214C4.82146 3.26901 4.90612 3.06463 5.05681 2.91392Z" fill="#0C098C"/>
</svg>
