<svg width="30" height="30" viewBox="0 0 30 30" fill="none" xmlns="http://www.w3.org/2000/svg">
<path fill-rule="evenodd" clip-rule="evenodd" d="M22.7678 6.96429C22.7678 5.92876 21.9285 5.08929 20.8929 5.08929C19.8573 5.08929 19.0179 5.92876 19.0179 6.96429V11.25C19.0179 12.2855 19.8573 13.125 20.8929 13.125C21.9285 13.125 22.7678 12.2855 22.7678 11.25V6.96429ZM9.31951 28.6607H23.125C24.1112 28.6607 24.9107 27.8612 24.9107 26.8751C24.9107 24.9026 23.3117 23.3036 21.3393 23.3036H12.8572H11.7421C12.0515 23.1941 12.3419 23.0156 12.5894 22.7681C13.477 21.8805 13.477 20.4415 12.5894 19.5538L10.0946 17.0591C9.29088 16.2554 8.20079 15.8038 7.06415 15.8038H0.000488281L0.000816085 23.2592L6.57586 27.6673C7.34606 28.3093 8.31693 28.6607 9.31951 28.6607Z" fill="#FDDC5C"/>
<path fill-rule="evenodd" clip-rule="evenodd" d="M11.7857 9.10714C11.7857 4.07741 15.8632 0 20.8929 0C25.9226 0 30 4.07741 30 9.10714C30 14.1369 25.9226 18.2143 20.8929 18.2143C15.8632 18.2143 11.7857 14.1369 11.7857 9.10714ZM22.7679 6.96429C22.7679 5.92875 21.9283 5.08929 20.8929 5.08929C19.8574 5.08929 19.0179 5.92875 19.0179 6.96429V11.25C19.0179 12.2855 19.8574 13.125 20.8929 13.125C21.9283 13.125 22.7679 12.2855 22.7679 11.25V6.96429ZM0.310452 22.4462C0.783974 21.8779 1.62848 21.8012 2.19672 22.2748L7.43328 26.6385C7.96278 27.0797 8.63026 27.3214 9.31953 27.3214H23.1251C23.3715 27.3214 23.5715 27.1215 23.5715 26.8751C23.5715 25.6423 22.572 24.6429 21.3393 24.6429H11.9448C10.7327 24.9767 9.38056 24.6675 8.42802 23.7148L6.82088 22.1076C6.29785 21.5848 6.29785 20.7367 6.82088 20.2137C7.3439 19.6907 8.19188 19.6907 8.7149 20.2137L10.322 21.8209C10.5831 22.0819 10.9602 22.1561 11.2872 22.0434C11.292 22.0416 11.2967 22.0399 11.3015 22.0382C11.4259 21.993 11.5426 21.9206 11.6423 21.8209C12.0069 21.4562 12.0069 20.8652 11.6423 20.5006L9.14755 18.0058C8.59499 17.4533 7.84557 17.1429 7.06411 17.1429H1.33932C0.599652 17.1429 3.33636e-05 16.5432 3.33636e-05 15.8036C3.33636e-05 15.0639 0.599652 14.4643 1.33932 14.4643H7.06411C8.55597 14.4643 9.98669 15.0569 11.0416 16.1118L13.5363 18.6066C14.4474 19.5176 14.77 20.7943 14.5043 21.9643H21.3393C24.0515 21.9643 26.25 24.1629 26.25 26.8751C26.25 28.6009 24.851 30 23.1251 30H9.31953C8.00365 30 6.7294 29.5386 5.7185 28.6963L0.48193 24.3324C-0.0862987 23.859 -0.163072 23.0145 0.310452 22.4462Z" fill="#0C098C"/>
</svg>
