<svg width="34" height="20" viewBox="0 0 34 20" fill="none" xmlns="http://www.w3.org/2000/svg">
<path fill-rule="evenodd" clip-rule="evenodd" d="M17.0348 10.7802H17.0762C20.943 10.7802 24.0871 8.474 24.0871 5.64012C24.0871 2.80625 20.943 0.5 17.0762 0.5C13.2109 0.5 10.0668 2.80625 10.0668 5.63675C10.0591 7.00588 10.7788 8.29513 12.0953 9.266C13.4088 10.238 15.1627 10.7758 17.0348 10.7802ZM12.3685 5.64013C12.3685 3.73662 14.4799 2.1875 17.0762 2.1875C19.6725 2.1875 21.7854 3.73662 21.7854 5.64013C21.7854 7.54475 19.6725 9.09275 17.0762 9.09275H17.0378C15.7857 9.08938 14.6103 8.72825 13.728 8.07688C12.8457 7.4255 12.3639 6.56262 12.3685 5.64013Z" fill="black"/>
<path d="M25.1445 8.93807C25.2258 9.35994 25.7183 9.66482 26.283 9.66482C26.3352 9.66482 26.3889 9.66257 26.4426 9.65694C29.1663 9.37682 31.224 7.64432 31.2301 5.62494C31.2301 3.61907 29.2706 1.92707 26.573 1.60194C25.9424 1.52882 25.3547 1.83707 25.2503 2.29719C25.1475 2.75732 25.5726 3.19157 26.1986 3.26694C27.7807 3.45707 28.9284 4.44932 28.9284 5.62269C28.9254 6.80619 27.7208 7.82094 26.125 7.98519C25.4943 8.04932 25.057 8.47569 25.1445 8.93807Z" fill="black"/>
<path d="M29.7718 16.3042C29.9467 16.6405 30.384 16.8475 30.8474 16.8475C30.984 16.8475 31.1221 16.8295 31.2571 16.7924C33.4514 16.1793 33.7798 15.0622 33.7798 14.4502C33.7798 13.4478 32.9987 12.1675 29.2807 11.7592C28.647 11.6995 28.0639 12.0067 27.9703 12.4679C27.8767 12.9303 28.311 13.3589 28.9385 13.4287C30.6234 13.6132 31.4781 13.9574 31.4781 14.4502C31.4781 14.6043 31.4781 14.9249 30.4377 15.2152C29.8439 15.3805 29.5447 15.8688 29.7718 16.3042Z" fill="black"/>
<path fill-rule="evenodd" clip-rule="evenodd" d="M17.0761 19.3898C14.5305 19.3898 6.78146 19.3898 6.78146 15.7954C6.78146 12.2157 14.5305 12.2157 17.0761 12.2157C19.6218 12.2157 27.3693 12.2157 27.3693 15.8146C27.3693 19.3898 19.8919 19.3898 17.0761 19.3898ZM17.0761 13.9032C13.4303 13.9032 9.08315 14.2317 9.08315 15.7954C9.08315 17.3716 13.4303 17.7023 17.0761 17.7023C20.722 17.7023 25.0676 17.3749 25.0676 15.8146C25.0676 14.2351 20.722 13.9032 17.0761 13.9032Z" fill="black"/>
<path d="M7.86783 9.66476C7.81566 9.66476 7.76196 9.66251 7.70825 9.65688C4.98459 9.37676 2.92842 7.64426 2.92228 5.62713C2.92228 3.61901 4.88178 1.92701 7.57936 1.60188C8.22536 1.52763 8.79772 1.83926 8.90206 2.29713C9.00487 2.75726 8.57982 3.19151 7.95376 3.26688C6.37174 3.45701 5.22396 4.44926 5.22396 5.62488C5.22703 6.80613 6.43158 7.82201 8.02588 7.98513C8.65655 8.04926 9.09387 8.47563 9.0064 8.93801C8.92507 9.35988 8.43251 9.66476 7.86783 9.66476Z" fill="black"/>
<path d="M2.89528 16.7925C3.03031 16.8296 3.16841 16.8476 3.30498 16.8476C3.76838 16.8476 4.2057 16.6406 4.38063 16.3042C4.60773 15.8688 4.30851 15.3806 3.71468 15.2152C2.67278 14.9238 2.67278 14.6043 2.67278 14.4502C2.67278 13.9575 3.52747 13.6132 5.21231 13.4287C5.8399 13.359 6.27415 12.9303 6.18055 12.468C6.08541 12.0067 5.50539 11.7007 4.87166 11.7592C1.15213 12.1676 0.371094 13.449 0.371094 14.4502C0.371094 15.0611 0.699468 16.1782 2.89528 16.7925Z" fill="black"/>
</svg>
