<svg width="30" height="30" viewBox="0 0 30 30" fill="none" xmlns="http://www.w3.org/2000/svg">
<path fill-rule="evenodd" clip-rule="evenodd" d="M4.28592 7.76785H25.7145C26.898 7.76785 27.8574 8.72725 27.8574 9.91071V14.1964C27.8574 15.3799 26.898 16.3393 25.7145 16.3393V25.9821C25.7145 26.5504 25.4886 27.0956 25.0869 27.4974C24.6851 27.8991 24.1399 28.125 23.5716 28.125H6.42878C5.86045 28.125 5.31542 27.8991 4.91355 27.4974C4.5117 27.0956 4.28592 26.5504 4.28592 25.9821V16.3393C3.10247 16.3393 2.14307 15.3799 2.14307 14.1964V9.91071C2.14307 8.72725 3.10247 7.76785 4.28592 7.76785Z" fill="#7AF1FF"/>
<path fill-rule="evenodd" clip-rule="evenodd" d="M9.77191 0.970337C8.9764 0.307406 7.7941 0.414887 7.13116 1.21041C6.46823 2.00593 6.57571 3.18824 7.37123 3.85118L10.4642 6.42861H4.28585C2.36273 6.42861 0.803711 7.98762 0.803711 9.91075V14.1965C0.803711 15.645 1.6882 16.887 2.94657 17.4117V25.9821C2.94657 26.9057 3.31343 27.7913 3.96646 28.4445C4.6195 29.0974 5.50518 29.4643 6.42871 29.4643H23.5716C24.4951 29.4643 25.3808 29.0974 26.0337 28.4445C26.6869 27.7913 27.0537 26.9057 27.0537 25.9821V17.4117C28.312 16.887 29.1966 15.645 29.1966 14.1965V9.91075C29.1966 7.98762 27.6376 6.42861 25.7144 6.42861H19.5361L22.6291 3.85118C23.4246 3.18824 23.5321 2.00593 22.8691 1.21041C22.2061 0.414887 21.0239 0.307406 20.2284 0.970337L15.0001 5.3272L9.77191 0.970337ZM4.28585 9.10718H12.5894V15H4.28585C3.84205 15 3.48228 14.6403 3.48228 14.1965V9.91075C3.48228 9.46696 3.84205 9.10718 4.28585 9.10718ZM17.4109 9.10718V15H25.7144C26.1582 15 26.518 14.6403 26.518 14.1965V9.91075C26.518 9.46696 26.1582 9.10718 25.7144 9.10718H17.4109ZM5.62514 17.6786H12.5894V26.7857H6.42871C6.21558 26.7857 6.0112 26.7011 5.86049 26.5504C5.7098 26.3998 5.62514 26.1953 5.62514 25.9821V17.6786ZM17.4109 17.6786V26.7857H23.5716C23.7848 26.7857 23.989 26.7011 24.1399 26.5504C24.2905 26.3998 24.3751 26.1953 24.3751 25.9821V17.6786H17.4109Z" fill="#0C098C"/>
</svg>
