<svg width="13" height="8" viewBox="0 0 13 8" fill="none" xmlns="http://www.w3.org/2000/svg">
<path d="M12.7176 3.33C12.8835 3.51375 12.9753 3.75248 12.9753 4C12.9753 4.24752 12.8835 4.48625 12.7176 4.67C11.6676 5.8 9.27764 8 6.48764 8C3.69764 8 1.30764 5.8 0.257639 4.67C0.0917989 4.48625 0 4.24752 0 4C0 3.75248 0.0917989 3.51375 0.257639 3.33C1.30764 2.2 3.69764 0 6.48764 0C9.27764 0 11.6676 2.2 12.7176 3.33Z" stroke="#000001" stroke-linecap="round" stroke-linejoin="round"/>
<path d="M6.48779 6C7.59236 6 8.48779 5.10457 8.48779 4C8.48779 2.89543 7.59236 2 6.48779 2C5.38322 2 4.48779 2.89543 4.48779 4C4.48779 5.10457 5.38322 6 6.48779 6Z" stroke="#000001" stroke-linecap="round" stroke-linejoin="round"/>
</svg>
