<svg width="22" height="22" viewBox="0 0 22 22" fill="none" xmlns="http://www.w3.org/2000/svg">
<path d="M10.9999 0.785706C12.7879 0.785706 14.5026 1.49596 15.7668 2.76022C17.0311 4.02449 17.7414 5.7392 17.7414 7.52713C17.7414 15.0228 20.4756 16.5 21.2142 16.5H0.785645C1.53993 16.5 4.2585 15.0071 4.2585 7.52713C4.2585 5.7392 4.96876 4.02449 6.23302 2.76022C7.49728 1.49596 9.21199 0.785706 10.9999 0.785706V0.785706Z" stroke="#000001" stroke-linecap="round" stroke-linejoin="round"/>
<path d="M8.64258 19.3757C8.77841 19.8975 9.08352 20.3594 9.51009 20.6891C9.93666 21.0189 10.4606 21.1978 10.9997 21.1978C11.5389 21.1978 12.0628 21.0189 12.4894 20.6891C12.9159 20.3594 13.221 19.8975 13.3569 19.3757" stroke="#000001" stroke-linecap="round" stroke-linejoin="round"/>
</svg>
