<svg width="14" height="14" viewBox="0 0 14 14" fill="none" xmlns="http://www.w3.org/2000/svg">
<path d="M7.00052 13.3758C10.5216 13.3758 13.376 10.5213 13.376 7.00015C13.376 3.47898 10.5216 0.624512 7.00052 0.624512C3.47942 0.624512 0.625 3.47898 0.625 7.00015C0.625 8.33484 1.03511 9.57375 1.7362 10.5977L0.625 13.3758L4.10208 12.6804C4.97167 13.125 5.95681 13.3758 7.00052 13.3758Z" fill="#FFD700"/>
<path fill-rule="evenodd" clip-rule="evenodd" d="M1.25 7.00015C1.25 3.82415 3.82461 1.24951 7.00053 1.24951C10.1764 1.24951 12.751 3.82415 12.751 7.00015C12.751 10.1761 10.1764 12.7508 7.00053 12.7508C6.05802 12.7508 5.17017 12.5245 4.38662 12.1239C4.26116 12.0597 4.1177 12.0399 3.97952 12.0675L1.6338 12.5366L2.31651 10.8298C2.39396 10.6362 2.36973 10.4167 2.25192 10.2446C1.61976 9.32133 1.25 8.20486 1.25 7.00015ZM7.00053 -0.000488281C3.13424 -0.000488281 8.49989e-06 3.13381 8.49989e-06 7.00015C8.49989e-06 8.34339 0.378891 9.59972 1.03565 10.6663L0.0447092 13.1437C-0.0404734 13.3566 -0.00216469 13.5991 0.144514 13.7755C0.291192 13.9518 0.522673 14.0336 0.747583 13.9886L4.01688 13.3348C4.92264 13.7621 5.9345 14.0008 7.00053 14.0008C10.8668 14.0008 14.001 10.8665 14.001 7.00015C14.001 3.13381 10.8668 -0.000488281 7.00053 -0.000488281ZM7.00025 10.875C6.517 10.875 6.12525 10.4832 6.12525 10C6.12525 9.51675 6.517 9.125 7.00025 9.125C7.4835 9.125 7.87525 9.51675 7.87525 10C7.87525 10.4832 7.4835 10.875 7.00025 10.875ZM5.87525 5.25C5.87525 4.62868 6.37893 4.125 7.00025 4.125C7.62157 4.125 8.12525 4.62868 8.12525 5.25C8.12525 5.87132 7.62157 6.375 7.00025 6.375C6.65507 6.375 6.37525 6.65482 6.37525 7V8C6.37525 8.34518 6.65507 8.625 7.00025 8.625C7.34543 8.625 7.62525 8.34518 7.62525 8V7.5419C8.63371 7.26755 9.37525 6.34537 9.37525 5.25C9.37525 3.93832 8.31192 2.875 7.00025 2.875C5.68857 2.875 4.62525 3.93832 4.62525 5.25C4.62525 5.59518 4.90507 5.875 5.25025 5.875C5.59543 5.875 5.87525 5.59518 5.87525 5.25Z" fill="#0C098C"/>
</svg>
