<svg width="25" height="25" viewBox="0 0 25 25" fill="none" xmlns="http://www.w3.org/2000/svg">
<mask id="mask0_85_1354" style="mask-type:luminance" maskUnits="userSpaceOnUse" x="0" y="0" width="25" height="25">
<path fill-rule="evenodd" clip-rule="evenodd" d="M0.333496 0.125244H24.2499V24.3184H0.333496V0.125244Z" fill="white"/>
</mask>
<g mask="url(#mask0_85_1354)">
<path fill-rule="evenodd" clip-rule="evenodd" d="M14.0033 16.2027C15.408 16.2027 16.5513 17.2973 16.5513 18.6428V22.1033C16.5513 22.3924 16.7917 22.6242 17.0997 22.6309H19.3233C21.0757 22.6309 22.5002 21.2742 22.5002 19.6069V9.79241C22.492 9.21866 22.2085 8.67866 21.722 8.31978L14.0302 2.40453C12.9977 1.61591 11.5533 1.61591 10.5173 2.40678L2.878 8.31753C2.37283 8.68766 2.08933 9.22766 2.0835 9.81153V19.6069C2.0835 21.2742 3.508 22.6309 5.26033 22.6309H7.505C7.82116 22.6309 8.07783 22.389 8.07783 22.092C8.07783 22.0268 8.086 21.9615 8.1 21.8997V18.6428C8.1 17.3052 9.23633 16.2117 10.6305 16.2027H14.0033ZM19.3233 24.3184H17.0787C15.793 24.2892 14.8013 23.316 14.8013 22.1033V18.6428C14.8013 18.2277 14.4432 17.8902 14.0033 17.8902H10.6363C10.2058 17.8924 9.85 18.231 9.85 18.6428V22.092C9.85 22.1764 9.83833 22.2574 9.81383 22.3339C9.68783 23.4477 8.70083 24.3184 7.505 24.3184H5.26033C2.54316 24.3184 0.333496 22.2045 0.333496 19.6069V9.80366C0.345163 8.68541 0.879496 7.66166 1.80233 6.98778L9.4265 1.08716C11.1053 -0.195344 13.4445 -0.195344 15.1198 1.08491L22.7988 6.99116C23.7007 7.65378 24.235 8.67528 24.2502 9.78003V19.6069C24.2502 22.2045 22.0405 24.3184 19.3233 24.3184V24.3184Z" fill="black"/>
</g>
</svg>
