<svg width="26" height="25" viewBox="0 0 26 25" fill="none" xmlns="http://www.w3.org/2000/svg">
<mask id="mask0_79_519" style="mask-type:luminance" maskUnits="userSpaceOnUse" x="0" y="0" width="26" height="25">
<path fill-rule="evenodd" clip-rule="evenodd" d="M0 0.85437H25.6248V24.5995H0V0.85437Z" fill="white"/>
</mask>
<g mask="url(#mask0_79_519)">
<path fill-rule="evenodd" clip-rule="evenodd" d="M14.6458 16.6341C16.1508 16.6341 17.3758 17.7085 17.3758 19.029V22.4255C17.3758 22.7092 17.6333 22.9367 17.9633 22.9433H20.3458C22.2233 22.9433 23.7495 21.6117 23.7495 19.9753V10.3426C23.7408 9.77944 23.437 9.24944 22.9158 8.89721L14.6745 3.09151C13.5683 2.31748 12.0208 2.31748 10.9108 3.09371L2.72576 8.89501C2.18451 9.25828 1.88076 9.78828 1.87451 10.3613V19.9753C1.87451 21.6117 3.40076 22.9433 5.27826 22.9433H7.68326C8.02201 22.9433 8.29701 22.7059 8.29701 22.4144C8.29701 22.3504 8.30576 22.2863 8.32076 22.2256V19.029C8.32076 17.7162 9.53826 16.6429 11.032 16.6341H14.6458ZM20.3458 24.5996H17.9408C16.5633 24.5709 15.5008 23.6158 15.5008 22.4255V19.029C15.5008 18.6216 15.117 18.2904 14.6458 18.2904H11.0383C10.577 18.2926 10.1958 18.6249 10.1958 19.029V22.4144C10.1958 22.4972 10.1833 22.5767 10.157 22.6518C10.022 23.7449 8.96451 24.5996 7.68326 24.5996H5.27826C2.36701 24.5996 -0.000488281 22.5248 -0.000488281 19.9753V10.3536C0.0120117 9.25607 0.584512 8.25128 1.57326 7.58988L9.74201 1.79853C11.5408 0.539776 14.047 0.539776 15.842 1.79632L24.0695 7.59319C25.0358 8.24355 25.6083 9.24613 25.6245 10.3304V19.9753C25.6245 22.5248 23.257 24.5996 20.3458 24.5996Z" fill="black"/>
</g>
</svg>
