<svg width="30" height="28" viewBox="0 0 30 28" fill="none" xmlns="http://www.w3.org/2000/svg">
<path d="M5.47754 26.0649V11.3326L14.9352 1.875L24.3923 11.3326V26.0649H5.47754Z" fill="#79EE8D"/>
<path fill-rule="evenodd" clip-rule="evenodd" d="M16.261 0.549175C15.5287 -0.183058 14.3415 -0.183058 13.6093 0.549175L0.549175 13.6093C-0.183058 14.3415 -0.183058 15.5287 0.549175 16.261C1.28141 16.9932 2.46859 16.9932 3.20082 16.261L4.13819 15.3236V26.0649C4.13819 26.8046 4.73781 27.4041 5.47748 27.4041H24.3922C25.1319 27.4041 25.7315 26.8046 25.7315 26.0649V15.3231L26.6694 16.261C27.4016 16.9932 28.5888 16.9932 29.321 16.261C30.0534 15.5287 30.0534 14.3415 29.321 13.6093L16.261 0.549175ZM23.0529 12.6446L14.9351 4.52666L6.81676 12.645V24.7256H23.0529V12.6446Z" fill="#0C098C"/>
</svg>
