<svg width="26" height="25" viewBox="0 0 26 25" fill="none" xmlns="http://www.w3.org/2000/svg">
<mask id="mask0_128_1492" style="mask-type:luminance" maskUnits="userSpaceOnUse" x="0" y="0" width="26" height="25">
<path fill-rule="evenodd" clip-rule="evenodd" d="M0 0.354492H25.6247V24.0996H0V0.354492Z" fill="white"/>
</mask>
<g mask="url(#mask0_128_1492)">
<path fill-rule="evenodd" clip-rule="evenodd" d="M14.6463 16.1344C16.1513 16.1344 17.3763 17.2088 17.3763 18.5294V21.9258C17.3763 22.2095 17.6338 22.437 17.9638 22.4436H20.3463C22.2238 22.4436 23.75 21.112 23.75 19.4756V9.84287C23.7413 9.27975 23.4375 8.74975 22.9163 8.39752L14.675 2.59181C13.5687 1.81779 12.0213 1.81779 10.9113 2.59402L2.72625 8.39531C2.185 8.75858 1.88125 9.28858 1.875 9.86164V19.4756C1.875 21.112 3.40125 22.4436 5.27875 22.4436H7.68375C8.0225 22.4436 8.2975 22.2062 8.2975 21.9147C8.2975 21.8507 8.30625 21.7866 8.32125 21.7259V18.5294C8.32125 17.2165 9.53875 16.1432 11.0325 16.1344H14.6463ZM20.3463 24.0999H17.9412C16.5637 24.0712 15.5013 23.1161 15.5013 21.9258V18.5294C15.5013 18.1219 15.1175 17.7907 14.6463 17.7907H11.0388C10.5775 17.7929 10.1962 18.1252 10.1962 18.5294V21.9147C10.1962 21.9975 10.1838 22.077 10.1575 22.1521C10.0225 23.2453 8.965 24.0999 7.68375 24.0999H5.27875C2.3675 24.0999 0 22.0251 0 19.4756V9.85392C0.0125 8.75637 0.585 7.75158 1.57375 7.09019L9.7425 1.29883C11.5413 0.0400809 14.0475 0.0400809 15.8425 1.29662L24.07 7.0935C25.0363 7.74385 25.6087 8.74644 25.625 9.83073V19.4756C25.625 22.0251 23.2575 24.0999 20.3463 24.0999V24.0999Z" fill="black"/>
</g>
</svg>
