<svg width="23" height="24" viewBox="0 0 23 24" fill="none" xmlns="http://www.w3.org/2000/svg">
<path fill-rule="evenodd" clip-rule="evenodd" d="M11.8378 8.27051C10.5376 8.27051 9.47998 9.21905 9.47998 10.3863C9.47998 11.5523 10.5376 12.4997 11.8378 12.4997C13.138 12.4997 14.1956 11.5523 14.1956 10.3863C14.1956 9.21905 13.138 8.27051 11.8378 8.27051M11.8378 14.3122C9.42339 14.3122 7.45898 12.5516 7.45898 10.3863C7.45898 8.21976 9.42339 6.45801 11.8378 6.45801C14.2522 6.45801 16.2166 8.21976 16.2166 10.3863C16.2166 12.5516 14.2522 14.3122 11.8378 14.3122" fill="black"/>
<mask id="mask0_128_1483" style="mask-type:luminance" maskUnits="userSpaceOnUse" x="0" y="0" width="23" height="24">
<path fill-rule="evenodd" clip-rule="evenodd" d="M0.72168 0.416504H22.9519V23.979H0.72168V0.416504Z" fill="white"/>
</mask>
<g mask="url(#mask0_128_1483)">
<path fill-rule="evenodd" clip-rule="evenodd" d="M11.8362 2.229C6.82141 2.229 2.7417 5.92288 2.7417 10.4614C2.7417 16.236 10.3191 21.862 11.8362 22.1617C13.3533 21.8608 20.9306 16.2348 20.9306 10.4614C20.9306 5.92288 16.8509 2.229 11.8362 2.229V2.229ZM11.8362 23.979C9.41905 23.979 0.720703 17.2703 0.720703 10.4614C0.720703 4.92238 5.70717 0.416504 11.8362 0.416504C17.9652 0.416504 22.9516 4.92238 22.9516 10.4614C22.9516 17.2703 14.2533 23.979 11.8362 23.979V23.979Z" fill="black"/>
</g>
</svg>
