<svg width="23" height="25" viewBox="0 0 23 25" fill="none" xmlns="http://www.w3.org/2000/svg">
<path fill-rule="evenodd" clip-rule="evenodd" d="M11.5873 8.77087C10.2871 8.77087 9.22949 9.71942 9.22949 10.8867C9.22949 12.0527 10.2871 13 11.5873 13C12.8875 13 13.9451 12.0527 13.9451 10.8867C13.9451 9.71942 12.8875 8.77087 11.5873 8.77087ZM11.5873 14.8125C9.1729 14.8125 7.2085 13.052 7.2085 10.8867C7.2085 8.72012 9.1729 6.95837 11.5873 6.95837C14.0017 6.95837 15.9661 8.72012 15.9661 10.8867C15.9661 13.052 14.0017 14.8125 11.5873 14.8125Z" fill="black"/>
<mask id="mask0_79_2" style="mask-type:luminance" maskUnits="userSpaceOnUse" x="0" y="0" width="23" height="25">
<path fill-rule="evenodd" clip-rule="evenodd" d="M0.471191 0.916687H22.7014V24.4792H0.471191V0.916687Z" fill="white"/>
</mask>
<g mask="url(#mask0_79_2)">
<path fill-rule="evenodd" clip-rule="evenodd" d="M11.5862 2.72919C6.57141 2.72919 2.4917 6.42306 2.4917 10.9616C2.4917 16.7362 10.0691 22.3622 11.5862 22.6619C13.1033 22.361 20.6806 16.735 20.6806 10.9616C20.6806 6.42306 16.6009 2.72919 11.5862 2.72919ZM11.5862 24.4792C9.16905 24.4792 0.470703 17.7705 0.470703 10.9616C0.470703 5.42256 5.45717 0.916687 11.5862 0.916687C17.7152 0.916687 22.7016 5.42256 22.7016 10.9616C22.7016 17.7705 14.0033 24.4792 11.5862 24.4792Z" fill="black"/>
</g>
</svg>
