<svg width="29" height="33" viewBox="0 0 29 33" fill="none" xmlns="http://www.w3.org/2000/svg">
<path fill-rule="evenodd" clip-rule="evenodd" d="M14.4172 11.1665C12.8088 11.1665 11.5005 12.4748 11.5005 14.0848C11.5005 15.6932 12.8088 16.9998 14.4172 16.9998C16.0255 16.9998 17.3338 15.6932 17.3338 14.0848C17.3338 12.4748 16.0255 11.1665 14.4172 11.1665M14.4172 19.4998C11.4305 19.4998 9.00049 17.0715 9.00049 14.0848C9.00049 11.0965 11.4305 8.6665 14.4172 8.6665C17.4038 8.6665 19.8338 11.0965 19.8338 14.0848C19.8338 17.0715 17.4038 19.4998 14.4172 19.4998" fill="black"/>
<mask id="mask0_150_1561" style="mask-type:luminance" maskUnits="userSpaceOnUse" x="0" y="0" width="29" height="33">
<path fill-rule="evenodd" clip-rule="evenodd" d="M0.666504 0.333252H28.1657V32.8333H0.666504V0.333252Z" fill="white"/>
</mask>
<g mask="url(#mask0_150_1561)">
<path fill-rule="evenodd" clip-rule="evenodd" d="M14.4155 2.83325C8.21219 2.83325 3.16553 7.92825 3.16553 14.1883C3.16553 22.1533 12.5389 29.9133 14.4155 30.3266C16.2922 29.9116 25.6655 22.1516 25.6655 14.1883C25.6655 7.92825 20.6189 2.83325 14.4155 2.83325V2.83325ZM14.4155 32.8333C11.4255 32.8333 0.665527 23.5799 0.665527 14.1883C0.665527 6.54825 6.83386 0.333252 14.4155 0.333252C21.9972 0.333252 28.1655 6.54825 28.1655 14.1883C28.1655 23.5799 17.4055 32.8333 14.4155 32.8333V32.8333Z" fill="black"/>
</g>
</svg>
