<svg width="27" height="24" viewBox="0 0 27 24" fill="none" xmlns="http://www.w3.org/2000/svg">
<path fill-rule="evenodd" clip-rule="evenodd" d="M5.753 2.229C2.04785 2.229 2.04785 2.48034 2.04785 5.55192V5.58213C2.04785 6.91975 2.04785 7.88642 2.41297 8.29484C2.77002 8.69117 3.83036 8.87484 5.753 8.87484C7.67564 8.87484 8.73598 8.68996 9.09303 8.29363C9.45815 7.88642 9.45815 6.91975 9.45815 5.58092C9.45815 2.48034 9.45815 2.229 5.753 2.229ZM5.753 10.6873C3.48141 10.6873 1.77703 10.4735 0.840642 9.43067C0.0268555 8.52563 0.0268555 7.29071 0.0268555 5.58213L1.03735 5.55192H0.0268555C0.0268555 2.084 0.270722 0.416504 5.753 0.416504C11.2353 0.416504 11.4791 2.084 11.4791 5.55192C11.4791 7.2895 11.4791 8.52563 10.6654 9.43067C9.72897 10.4735 8.0246 10.6873 5.753 10.6873Z" fill="black"/>
<path fill-rule="evenodd" clip-rule="evenodd" d="M20.5738 2.229C16.8686 2.229 16.8686 2.48034 16.8686 5.55192V5.58213C16.8686 6.91975 16.8686 7.88642 17.2338 8.29484C17.5908 8.69117 18.6512 8.87484 20.5738 8.87484C22.4964 8.87484 23.5568 8.68996 23.9138 8.29363C24.279 7.88642 24.279 6.91975 24.279 5.58092C24.279 2.48034 24.279 2.229 20.5738 2.229ZM20.5738 10.6873C18.3022 10.6873 16.5978 10.4735 15.6614 9.43067C14.8477 8.52563 14.8477 7.29071 14.8477 5.58213L15.8582 5.55192H14.8477C14.8477 2.084 15.0915 0.416504 20.5738 0.416504C26.0561 0.416504 26.2999 2.084 26.2999 5.55192C26.2999 7.2895 26.2999 8.52563 25.4862 9.43067C24.5498 10.4735 22.8454 10.6873 20.5738 10.6873Z" fill="black"/>
<path fill-rule="evenodd" clip-rule="evenodd" d="M5.753 15.5205C2.04785 15.5205 2.04785 15.7718 2.04785 18.8434V18.8736C2.04785 20.2113 2.04785 21.1779 2.41297 21.5863C2.77002 21.9827 3.83036 22.1663 5.753 22.1663C7.67564 22.1663 8.73598 21.9815 9.09303 21.5851C9.45815 21.1779 9.45815 20.2113 9.45815 18.8724C9.45815 15.7718 9.45815 15.5205 5.753 15.5205ZM5.753 23.9788C3.48141 23.9788 1.77703 23.765 0.840642 22.7222C0.0268555 21.8171 0.0268555 20.5822 0.0268555 18.8736L1.03735 18.8434H0.0268555C0.0268555 15.3755 0.270722 13.708 5.753 13.708C11.2353 13.708 11.4791 15.3755 11.4791 18.8434C11.4791 20.581 11.4791 21.8171 10.6654 22.7222C9.72897 23.765 8.0246 23.9788 5.753 23.9788Z" fill="black"/>
<path fill-rule="evenodd" clip-rule="evenodd" d="M20.5738 15.5205C16.8686 15.5205 16.8686 15.7718 16.8686 18.8434V18.8736C16.8686 20.2113 16.8686 21.1779 17.2338 21.5863C17.5908 21.9827 18.6512 22.1663 20.5738 22.1663C22.4964 22.1663 23.5568 21.9815 23.9138 21.5851C24.279 21.1779 24.279 20.2113 24.279 18.8724C24.279 15.7718 24.279 15.5205 20.5738 15.5205ZM20.5738 23.9788C18.3022 23.9788 16.5978 23.765 15.6614 22.7222C14.8477 21.8171 14.8477 20.5822 14.8477 18.8736L15.8582 18.8434H14.8477C14.8477 15.3755 15.0915 13.708 20.5738 13.708C26.0561 13.708 26.2999 15.3755 26.2999 18.8434C26.2999 20.581 26.2999 21.8171 25.4862 22.7222C24.5498 23.765 22.8454 23.9788 20.5738 23.9788Z" fill="black"/>
</svg>


