<svg width="24" height="28" viewBox="0 0 24 28" fill="none" xmlns="http://www.w3.org/2000/svg">
<mask id="mask0_128_1521" style="mask-type:luminance" maskUnits="userSpaceOnUse" x="0" y="0" width="24" height="23">
<path fill-rule="evenodd" clip-rule="evenodd" d="M0.75 0.75H23.8711V22.435H0.75V0.75Z" fill="white"/>
</mask>
<g mask="url(#mask0_128_1521)">
<path fill-rule="evenodd" clip-rule="evenodd" d="M12.3088 2.625C7.94002 2.625 4.89502 6.0475 4.89502 9.11875C4.89502 11.7175 4.17377 12.9188 3.53627 13.9788C3.02502 14.83 2.62127 15.5025 2.62127 16.9637C2.83002 19.3212 4.38627 20.56 12.3088 20.56C20.1875 20.56 21.7925 19.2663 22 16.8825C21.9963 15.5025 21.5925 14.83 21.0813 13.9788C20.4438 12.9188 19.7225 11.7175 19.7225 9.11875C19.7225 6.0475 16.6775 2.625 12.3088 2.625M12.3088 22.435C6.46377 22.435 1.18127 22.0225 0.750017 17.0437C0.746267 14.9837 1.37502 13.9362 1.93002 13.0137C2.49127 12.0787 3.02002 11.1975 3.02002 9.11875C3.02002 5.0775 6.75252 0.75 12.3088 0.75C17.865 0.75 21.5975 5.0775 21.5975 9.11875C21.5975 11.1975 22.1263 12.0787 22.6875 13.0137C23.2425 13.9362 23.8713 14.9837 23.8713 16.9637C23.435 22.0225 18.1538 22.435 12.3088 22.435" fill="black"/>
</g>
<path fill-rule="evenodd" clip-rule="evenodd" d="M12.2473 27.6248H12.2448C10.8435 27.6235 9.51729 27.006 8.51104 25.8848C8.16479 25.501 8.19604 24.9073 8.58104 24.5623C8.96604 24.2148 9.55854 24.246 9.90479 24.6323C10.5523 25.3535 11.3835 25.7498 12.246 25.7498H12.2473C13.1135 25.7498 13.9485 25.3535 14.5973 24.631C14.9448 24.2473 15.5373 24.216 15.921 24.5623C16.306 24.9085 16.3373 25.5023 15.991 25.886C14.981 27.0073 13.6523 27.6248 12.2473 27.6248" fill="black"/>
</svg>
