<svg width="28" height="28" viewBox="0 0 28 28" fill="none" xmlns="http://www.w3.org/2000/svg">
<path d="M2.21415 27.9284H25.7856C26.9691 27.9284 27.9284 26.9691 27.9284 25.7856V2.21415C27.9284 1.03068 26.9691 0.0712891 25.7856 0.0712891H2.21415C1.03068 0.0712891 0.0712891 1.03068 0.0712891 2.21415V25.7856C0.0712891 26.9691 1.03068 27.9284 2.21415 27.9284Z" stroke="black" stroke-width="2" stroke-linecap="round" stroke-linejoin="round"/>
<path d="M2.75 27.9286L18.3929 13.1857C18.5854 13.0253 18.828 12.9375 19.0786 12.9375C19.3291 12.9375 19.5718 13.0253 19.7643 13.1857L27.9286 19.0357" stroke="black" stroke-width="2" stroke-linecap="round" stroke-linejoin="round"/>
<path d="M8.64251 11.8568C10.4177 11.8568 11.8568 10.4177 11.8568 8.64251C11.8568 6.8673 10.4177 5.42822 8.64251 5.42822C6.8673 5.42822 5.42822 6.8673 5.42822 8.64251C5.42822 10.4177 6.8673 11.8568 8.64251 11.8568Z" stroke="black" stroke-width="2" stroke-linecap="round" stroke-linejoin="round"/>
</svg>
