<?xml version="1.0" encoding="UTF-8"?>
<svg width="16" height="16" viewBox="0 0 16 16" fill="none" xmlns="http://www.w3.org/2000/svg">
    <path d="M14 5C14 3.89543 13.1046 3 12 3H4C2.89543 3 2 3.89543 2 5V5.5C2 6.32843 2.67157 7 3.5 7H3.74315C3.90125 7 4.05036 7.07492 4.14645 7.20099L5.85355 9.29901C5.94964 9.42508 6.09875 9.5 6.25685 9.5H9.74315C9.90125 9.5 10.0504 9.42508 10.1464 9.29901L11.8536 7.20099C11.9496 7.07492 12.0987 7 12.2569 7H12.5C13.3284 7 14 6.32843 14 5.5V5Z" fill="#FF4757"/>
    <path d="M8 9.5V13.5M8 13.5L6 12M8 13.5L10 12" stroke="#FF4757" stroke-width="1.5" stroke-linecap="round" stroke-linejoin="round"/>
</svg>
