<svg width="34" height="35" viewBox="0 0 34 35" fill="none" xmlns="http://www.w3.org/2000/svg">
<path fill-rule="evenodd" clip-rule="evenodd" d="M7.04615 9.60786L8.05115 22.1589C8.12449 23.1249 8.87615 23.8494 9.79449 23.8494H9.80115H27.9862H27.9895C28.8578 23.8494 29.5995 23.1704 29.7228 22.2691L31.3062 10.7909C31.3428 10.5179 31.2778 10.2449 31.1195 10.0244C30.9628 9.80211 30.7328 9.65861 30.4728 9.62011C30.1245 9.63411 15.6695 9.61311 7.04615 9.60786V9.60786ZM9.79115 26.4744C7.59615 26.4744 5.73782 24.6754 5.55949 22.3741L4.03282 3.30961L1.52115 2.85461C0.839485 2.72861 0.384485 2.05136 0.501152 1.33561C0.621152 0.619858 1.27949 0.154358 1.94615 0.266358L5.41282 0.896358C5.97115 0.999608 6.39615 1.48611 6.44449 2.08111L6.83615 6.98286C30.6295 6.99336 30.7062 7.00561 30.8212 7.01961C31.7495 7.16136 32.5661 7.67061 33.1228 8.45461C33.6795 9.23686 33.9128 10.2011 33.7795 11.1671L32.1978 22.6436C31.8995 24.8276 30.0928 26.4744 27.9928 26.4744H27.9845H9.80449H9.79115Z" fill="black"/>
<path fill-rule="evenodd" clip-rule="evenodd" d="M25.3126 16.0764H20.6926C20.001 16.0764 19.4426 15.4884 19.4426 14.7639C19.4426 14.0394 20.001 13.4514 20.6926 13.4514H25.3126C26.0026 13.4514 26.5626 14.0394 26.5626 14.7639C26.5626 15.4884 26.0026 16.0764 25.3126 16.0764" fill="black"/>
<path fill-rule="evenodd" clip-rule="evenodd" d="M9.07435 31.2283C9.57602 31.2283 9.98102 31.6535 9.98102 32.1803C9.98102 32.707 9.57602 33.134 9.07435 33.134C8.57102 33.134 8.16602 32.707 8.16602 32.1803C8.16602 31.6535 8.57102 31.2283 9.07435 31.2283" fill="black"/>
<mask id="mask0_157_1731" style="mask-type:luminance" maskUnits="userSpaceOnUse" x="8" y="31" width="2" height="3">
<path fill-rule="evenodd" clip-rule="evenodd" d="M8.16504 32.1795C8.16504 32.708 8.57004 33.135 9.07504 33.135V33.135C9.57671 33.135 9.98171 32.708 9.98171 32.1795V32.1795C9.98171 31.6528 9.57671 31.2275 9.07504 31.2275V31.2275C8.57004 31.2275 8.16504 31.6528 8.16504 32.1795V32.1795Z" fill="white"/>
</mask>
<g mask="url(#mask0_157_1731)">
<path fill-rule="evenodd" clip-rule="evenodd" d="M-0.166504 41.8833H18.3152V22.4775H-0.166504V41.8833Z" fill="black"/>
</g>
<path fill-rule="evenodd" clip-rule="evenodd" d="M9.07268 31.8213C8.88435 31.8213 8.73102 31.9823 8.73102 32.18C8.73102 32.5773 9.41602 32.5773 9.41602 32.18C9.41602 31.9823 9.26102 31.8213 9.07268 31.8213M9.07268 34.4463C7.88268 34.4463 6.91602 33.4295 6.91602 32.18C6.91602 30.9305 7.88268 29.9155 9.07268 29.9155C10.2627 29.9155 11.231 30.9305 11.231 32.18C11.231 33.4295 10.2627 34.4463 9.07268 34.4463" fill="black"/>
<path fill-rule="evenodd" clip-rule="evenodd" d="M27.8749 31.2283C28.3766 31.2283 28.7832 31.6535 28.7832 32.1803C28.7832 32.707 28.3766 33.134 27.8749 33.134C27.3716 33.134 26.9666 32.707 26.9666 32.1803C26.9666 31.6535 27.3716 31.2283 27.8749 31.2283" fill="black"/>
<mask id="mask1_157_1731" style="mask-type:luminance" maskUnits="userSpaceOnUse" x="26" y="31" width="3" height="3">
<path fill-rule="evenodd" clip-rule="evenodd" d="M26.9666 32.1795C26.9666 32.708 27.3716 33.135 27.8749 33.135V33.135C28.3749 33.135 28.7832 32.708 28.7832 32.1795V32.1795C28.7832 31.6528 28.3749 31.2275 27.8749 31.2275V31.2275C27.3716 31.2275 26.9666 31.6528 26.9666 32.1795V32.1795Z" fill="white"/>
</mask>
<g mask="url(#mask1_157_1731)">
<path fill-rule="evenodd" clip-rule="evenodd" d="M18.6333 41.8833H37.1166V22.4775H18.6333V41.8833Z" fill="black"/>
</g>
<path fill-rule="evenodd" clip-rule="evenodd" d="M27.873 31.8213C27.6863 31.8213 27.533 31.9823 27.533 32.18C27.5346 32.5808 28.218 32.5773 28.2163 32.18C28.2163 31.9823 28.0613 31.8213 27.873 31.8213M27.873 34.4463C26.683 34.4463 25.7163 33.4295 25.7163 32.18C25.7163 30.9305 26.683 29.9155 27.873 29.9155C29.0646 29.9155 30.033 30.9305 30.033 32.18C30.033 33.4295 29.0646 34.4463 27.873 34.4463" fill="black"/>
</svg>
