<svg width="26" height="28" viewBox="0 0 26 28" fill="none" xmlns="http://www.w3.org/2000/svg">
<path d="M0.143066 6.5H25.8574" stroke="black" stroke-width="2" stroke-linecap="round" stroke-linejoin="round"/>
<path d="M3.35742 6.5H22.6431V25.7857C22.6431 26.354 22.4173 26.8991 22.0155 27.3009C21.6137 27.7027 21.0686 27.9286 20.5003 27.9286H5.50028C4.93195 27.9286 4.38691 27.7027 3.98504 27.3009C3.58319 26.8991 3.35742 26.354 3.35742 25.7857V6.5Z" stroke="black" stroke-width="2" stroke-linecap="round" stroke-linejoin="round"/>
<path d="M7.64307 6.49986V5.42843C7.64307 4.00763 8.20747 2.64501 9.21213 1.64035C10.2168 0.6357 11.5794 0.0712891 13.0002 0.0712891C14.421 0.0712891 15.7836 0.6357 16.7883 1.64035C17.7929 2.64501 18.3574 4.00763 18.3574 5.42843V6.49986" stroke="black" stroke-width="2" stroke-linecap="round" stroke-linejoin="round"/>
<path d="M9.78613 12.9316V21.5064" stroke="black" stroke-width="2" stroke-linecap="round" stroke-linejoin="round"/>
<path d="M16.2144 12.9316V21.5064" stroke="black" stroke-width="2" stroke-linecap="round" stroke-linejoin="round"/>
</svg>
