<svg width="30" height="30" viewBox="0 0 30 30" fill="none" xmlns="http://www.w3.org/2000/svg">
<path fill-rule="evenodd" clip-rule="evenodd" d="M15.0003 0.0010376C6.71642 0.0010376 0.000976562 6.71648 0.000976562 15.0004C0.000976562 23.2843 6.71642 29.9998 15.0003 29.9998C23.2842 29.9998 29.9997 23.2843 29.9997 15.0004C29.9997 6.71648 23.2842 0.0010376 15.0003 0.0010376ZM2.67955 15.0004C2.67955 8.1958 8.19574 2.67961 15.0003 2.67961C21.8048 2.67961 27.3211 8.1958 27.3211 15.0004C27.3211 21.8051 21.8048 27.3212 15.0003 27.3212C8.19574 27.3212 2.67955 21.8051 2.67955 15.0004ZM14.9999 8.83928C13.6685 8.83928 12.5892 9.91859 12.5892 11.25C12.5892 11.9897 11.9896 12.5893 11.2499 12.5893C10.5103 12.5893 9.91064 11.9897 9.91064 11.25C9.91064 8.43925 12.1892 6.16071 14.9999 6.16071C17.8107 6.16071 20.0892 8.43925 20.0892 11.25C20.0892 13.5972 18.5002 15.5733 16.3392 16.1612V17.1428C16.3392 17.8825 15.7396 18.4821 14.9999 18.4821C14.2603 18.4821 13.6606 17.8825 13.6606 17.1428V15C13.6606 14.2603 14.2603 13.6607 14.9999 13.6607C16.3313 13.6607 17.4106 12.5814 17.4106 11.25C17.4106 9.91859 16.3313 8.83928 14.9999 8.83928ZM14.9999 19.5536C16.0355 19.5536 16.8749 20.393 16.8749 21.4286C16.8749 22.464 16.0355 23.3036 14.9999 23.3036C13.9644 23.3036 13.1249 22.464 13.1249 21.4286C13.1249 20.393 13.9644 19.5536 14.9999 19.5536Z" fill="#0C098C"/>
</svg>
