<svg width="26" height="30" viewBox="0 0 26 30" fill="none" xmlns="http://www.w3.org/2000/svg">
<path fill-rule="evenodd" clip-rule="evenodd" d="M26 15C26 19.0219 24.6281 22.674 22.3951 25.3676C20.0365 28.2122 16.7174 29.9876 13.0388 30C13.0259 30 13.0129 30 13 30C12.9871 30 12.9741 30 12.9612 30C9.28256 29.9876 5.9634 28.2122 3.60496 25.3676C1.3718 22.674 0 19.0219 0 15C0 6.71574 5.8203 0 13 0C20.1797 0 26 6.71574 26 15ZM20.8795 22.5C19.0062 19.8824 16.1719 18.2142 13 18.2142C9.82811 18.2142 6.99389 19.8824 5.12042 22.5C6.99389 25.1175 9.82811 26.7857 13 26.7857C16.1719 26.7857 19.0062 25.1175 20.8795 22.5ZM13.0002 16.0714C15.5644 16.0714 17.6431 13.6729 17.6431 10.7142C17.6431 7.75556 15.5644 5.35708 13.0002 5.35708C10.436 5.35708 8.35737 7.75556 8.35737 10.7142C8.35737 13.6729 10.436 16.0714 13.0002 16.0714Z" fill="black"/>
</svg>
