<svg width="30" height="26" viewBox="0 0 30 26" fill="none" xmlns="http://www.w3.org/2000/svg">
<path d="M6.59347 8.7845H3.44101C2.29631 8.7845 1.33936 9.74437 1.33936 10.8925V15.1086C1.33936 16.2568 2.29631 17.2166 3.44101 17.2166H6.59347L13.7601 24.1943C15.1163 25.1354 17.065 24.1444 17.1017 22.4867V3.51438C17.1411 1.85568 15.3092 0.863043 13.9493 1.80686L6.59347 8.7845Z" fill="#FF7972"/>
<path fill-rule="evenodd" clip-rule="evenodd" d="M13.1903 0.702792C15.4542 -0.868387 18.4985 0.791314 18.4468 3.52534V22.4907V22.5203C18.3866 25.2432 15.237 26.8508 13.0011 25.2991C12.9404 25.2569 12.8833 25.21 12.8304 25.1584L6.05109 18.5579H3.44173C1.5531 18.5579 0 16.9942 0 15.1098V10.8922C0 9.00771 1.5531 7.44405 3.44173 7.44405H6.06122L13.0322 0.831406C13.0816 0.784585 13.1344 0.741599 13.1903 0.702792ZM15.7687 3.47942C15.7816 2.93241 15.226 2.61988 14.7825 2.86311L7.5171 9.75499C7.26827 9.99103 6.93836 10.1226 6.59537 10.1226H3.44173C3.04009 10.1226 2.67857 10.4794 2.67857 10.8922V15.1098C2.67857 15.5226 3.04009 15.8793 3.44173 15.8793H6.59537C6.94438 15.8793 7.27961 16.0156 7.52966 16.259L14.5986 23.1415C14.8091 23.254 15.07 23.2555 15.3226 23.1267C15.5997 22.9853 15.7582 22.7421 15.7683 22.4721V3.51122L15.7687 3.47942ZM25.4559 4.26673C26.2151 3.80702 27.2031 4.04985 27.663 4.80911C29.1566 7.27575 29.9625 10.0972 29.9976 12.9805V13.0196C29.9625 15.9029 29.1566 18.7243 27.663 21.1911C27.2031 21.9503 26.2151 22.1931 25.4559 21.7334C24.6964 21.2736 24.4536 20.2855 24.9135 19.5261C26.1064 17.5558 26.7519 15.3029 26.7834 13C26.7519 10.6971 26.1064 8.44425 24.9135 6.47391C24.4536 5.71466 24.6964 4.72646 25.4559 4.26673ZM21.0692 8.60826C21.7532 8.04253 22.7661 8.13838 23.3319 8.82231C24.3017 9.99471 24.8068 11.4815 24.7532 13.0003C24.8068 14.5191 24.3017 16.0059 23.3319 17.1783C22.7661 17.8623 21.7532 17.9581 21.0692 17.3924C20.3852 16.8266 20.2894 15.8136 20.8551 15.1296C21.3309 14.5544 21.5749 13.8224 21.5394 13.0768C21.537 13.0258 21.537 12.9748 21.5394 12.9239C21.5749 12.1783 21.3309 11.4462 20.8551 10.871C20.2894 10.1871 20.3852 9.174 21.0692 8.60826Z" fill="#0C098C"/>
</svg>
