<svg width="24" height="24" viewBox="0 0 24 24" fill="none" xmlns="http://www.w3.org/2000/svg">
<path fill-rule="evenodd" clip-rule="evenodd" d="M12.0873 8.27051C10.7871 8.27051 9.72949 9.21905 9.72949 10.3863C9.72949 11.5523 10.7871 12.4997 12.0873 12.4997C13.3875 12.4997 14.4451 11.5523 14.4451 10.3863C14.4451 9.21905 13.3875 8.27051 12.0873 8.27051ZM12.0873 14.3122C9.6729 14.3122 7.7085 12.5516 7.7085 10.3863C7.7085 8.21976 9.6729 6.45801 12.0873 6.45801C14.5017 6.45801 16.4661 8.21976 16.4661 10.3863C16.4661 12.5516 14.5017 14.3122 12.0873 14.3122Z" fill="black"/>
<mask id="mask0_131_948" style="mask-type:luminance" maskUnits="userSpaceOnUse" x="0" y="0" width="24" height="24">
<path fill-rule="evenodd" clip-rule="evenodd" d="M0.971191 0.416504H23.2014V23.979H0.971191V0.416504Z" fill="white"/>
</mask>
<g mask="url(#mask0_131_948)">
<path fill-rule="evenodd" clip-rule="evenodd" d="M12.0862 2.229C7.07141 2.229 2.9917 5.92288 2.9917 10.4614C2.9917 16.236 10.5691 21.862 12.0862 22.1617C13.6033 21.8608 21.1806 16.2348 21.1806 10.4614C21.1806 5.92288 17.1009 2.229 12.0862 2.229ZM12.0862 23.979C9.66905 23.979 0.970703 17.2703 0.970703 10.4614C0.970703 4.92238 5.95717 0.416504 12.0862 0.416504C18.2152 0.416504 23.2016 4.92238 23.2016 10.4614C23.2016 17.2703 14.5033 23.979 12.0862 23.979Z" fill="black"/>
</g>
</svg>
